<svg width="24" height="24" viewBox="0 0 24 24" fill="none" xmlns="http://www.w3.org/2000/svg">
<path d="M6.94061 1.76786C7.61529 1.79996 8.22819 2.17042 8.57021 2.75287L9.83953 4.91448C10.1717 5.48023 10.2054 6.17293 9.92949 6.76818L8.80187 9.20128C8.80187 9.20128 9.32269 11.3726 11.1574 13.2073C12.9921 15.042 15.1559 15.5553 15.1559 15.5553L17.5883 14.428C18.1839 14.1519 18.8771 14.1858 19.443 14.5185L21.6128 15.7943C22.1947 16.1365 22.5647 16.7491 22.5968 17.4233L22.6112 17.7252C22.741 20.4541 20.1696 22.4475 17.6646 21.3573C14.7377 20.0836 11.1822 18.1837 8.68159 15.6831C6.18101 13.1825 4.28112 9.62695 3.00738 6.70011C1.91722 4.1951 3.91064 1.6237 6.6395 1.75353L6.94061 1.76786Z" stroke="#005AAB" stroke-width="1.5" stroke-linejoin="round"/>
</svg>
