<svg width="60" height="60" viewBox="0 0 60 60" fill="none" xmlns="http://www.w3.org/2000/svg">
<rect x="0.5" y="0.5" width="59" height="59" rx="7.5" stroke="white"/>
<path d="M38.6291 25.0342C38.4217 24.2388 37.8137 23.6117 37.0427 23.3975C35.6341 23 29.9998 23 29.9998 23C29.9998 23 24.3657 23 22.9571 23.3825C22.2009 23.5964 21.5781 24.2389 21.3707 25.0342C21 26.487 21 29.5 21 29.5C21 29.5 21 32.5282 21.3707 33.9658C21.5783 34.7611 22.1861 35.3882 22.9572 35.6023C24.3805 36 30 36 30 36C30 36 35.6341 36 37.0427 35.6175C37.8138 35.4035 38.4217 34.7764 38.6294 33.9811C38.9999 32.5282 38.9999 29.5153 38.9999 29.5153C38.9999 29.5153 39.0148 26.487 38.6291 25.0342V25.0342ZM28.2059 32.2835V26.7165L32.8912 29.5L28.2059 32.2835Z" fill="white"/>
</svg>
