<svg width="215" height="46" viewBox="0 0 215 46" fill="none" xmlns="http://www.w3.org/2000/svg">
<g clip-path="url(#clip0_6792_16)">
<path d="M9.52516 38.199C14.9006 41.6336 23.3317 41.6373 32.1103 37.4869C37.2651 35.0494 41.7748 31.5281 45.2696 27.53L46.9371 16.5964H6.37205C6.33474 16.6694 6.30009 16.7429 6.26384 16.8159L9.52516 38.199Z" fill="#005AAB"/>
<path d="M32.1105 37.4863C23.3319 41.6367 14.9014 41.6335 9.5254 38.1983C6.68947 36.3862 4.70326 33.62 3.96602 30.0036C3.12644 25.8837 4.03958 21.2765 6.26408 16.8153L6.2305 16.5958H6.3723C6.54714 16.2518 6.72785 15.9089 6.91816 15.5676C1.73405 21.8121 -0.954215 29.1167 0.30916 35.3155C2.20529 44.6192 12.3629 48.2949 24.0089 44.5557C25.4717 44.0857 26.9573 43.506 28.4537 42.7982C35.6037 39.4176 41.5352 33.9639 45.1952 28.0219L45.2704 27.5294C41.7751 31.528 37.2658 35.0493 32.1105 37.4863Z" fill="#294159"/>
<path d="M6.26449 16.8154C6.30088 16.7424 6.33566 16.6689 6.37312 16.5959H6.23077L6.26449 16.8154Z" fill="#294159"/>
<path d="M27.2115 37.7602C26.6358 37.7602 26.139 37.4351 25.914 36.9116L23.0674 30.2786L16.7282 29.2562C16.0864 29.1528 15.6141 28.6544 15.5517 28.018C15.4893 27.3816 15.8571 26.8035 16.4659 26.5819L30.1972 21.574C30.3561 21.5157 30.5219 21.4863 30.6898 21.4863C31.12 21.4863 31.5353 21.6874 31.8018 22.0246C32.0699 22.3638 32.1621 22.7996 32.0545 23.2181L28.5799 36.7121C28.4195 37.3391 27.8693 37.7602 27.2115 37.7602Z" fill="#005AAB"/>
<path d="M30.6904 22.273C31.0684 22.273 31.3829 22.6275 31.2805 23.0239L27.806 36.5184C27.7292 36.8167 27.4707 36.9727 27.2116 36.9727C26.9845 36.9727 26.7575 36.8529 26.6508 36.6051L23.7637 29.8775C23.6822 29.6869 23.5068 29.5514 23.2994 29.5178L16.8578 28.4792C16.2389 28.3794 16.1558 27.5351 16.7443 27.3208L30.4756 22.3124C30.5481 22.2851 30.6201 22.273 30.6904 22.273ZM30.6904 20.6978C30.4282 20.6978 30.1691 20.7434 29.9207 20.8343L16.1893 25.8427C15.2346 26.1908 14.6589 27.0955 14.757 28.0932C14.8545 29.0914 15.5955 29.8707 16.5998 30.0329L22.5036 30.985L25.1785 37.2179C25.525 38.0255 26.3235 38.5474 27.2122 38.5474C28.2255 38.5474 29.1078 37.8721 29.3567 36.9054L32.8313 23.4115C33.0002 22.7556 32.8558 22.0735 32.4346 21.5411C32.0173 21.0128 31.3653 20.6978 30.6904 20.6978Z" fill="#F4F4F4"/>
<path d="M27.8317 44.419C27.8323 44.419 37.1818 40.497 43.9187 32.7644C49.1039 26.813 49.4637 21.4753 49.4584 21.458C51.3375 27.2824 48.7814 33.289 44.5936 37.4683C42.4528 39.6049 39.8781 41.3445 37.0714 42.5176C35.7164 43.0842 34.3272 43.4623 32.8954 43.7831C31.4177 44.1144 27.8317 44.419 27.8317 44.419Z" fill="#005AAB"/>
<path d="M48.4249 39.6534C48.4249 39.6534 51.3605 33.8243 51.5913 27.7499C51.7688 23.0744 49.8903 20.868 49.8812 20.8638C53.0104 22.219 54.1021 25.6984 53.7177 29.2344C53.521 31.0423 52.9661 32.8996 52.0839 34.6476C51.658 35.4914 51.143 36.2796 50.5865 37.0652C50.0113 37.8764 48.4249 39.6534 48.4249 39.6534Z" fill="#294159"/>
<path d="M2.05991 12.3359V16.616C2.05991 19.7876 4.80468 22.359 8.19128 22.359C11.5773 22.359 14.3221 19.7881 14.3221 16.616V12.3359H2.05991Z" fill="#203544"/>
<path d="M14.322 12.3359V16.616C14.322 19.7876 17.0668 22.359 20.4534 22.359C23.8395 22.359 26.5848 19.7881 26.5848 16.616V12.3359H14.322Z" fill="#003769"/>
<path d="M26.5841 12.3359V16.616C26.5841 19.7876 29.3289 22.359 32.715 22.359C36.101 22.359 38.8458 19.7881 38.8458 16.616V12.3359H26.5841Z" fill="#203544"/>
<path d="M38.8463 12.3359V16.616C38.8463 19.7876 41.591 22.359 44.9771 22.359C48.3631 22.359 51.1085 19.7881 51.1085 16.616V12.3359H38.8463Z" fill="#003769"/>
<path d="M13.1749 0L2.05991 12.3361H14.3221L19.4977 0H13.1749Z" fill="#294159"/>
<path d="M26.107 0L26.5841 12.3361H38.8463L32.902 0H26.107Z" fill="#294159"/>
<path d="M19.4976 0L14.322 12.3361H26.5842L26.1071 0H19.4976Z" fill="#005AAB"/>
<path d="M38.5856 0H32.902L38.8462 12.3361H51.1084L38.5856 0Z" fill="#005AAB"/>
<path d="M72.738 30H64.5471V15.7227H72.738V18.2031H67.5628V21.3379H72.3781V23.8184H67.5628V27.5H72.738V30Z" fill="black"/>
<path d="M75.7148 30V15.7227H78.7305V27.5H84.4992V30H75.7148Z" fill="black"/>
<path d="M95.1708 30H86.9798V15.7227H95.1708V18.2031H89.9955V21.3379H94.8108V23.8184H89.9955V27.5H95.1708V30Z" fill="black"/>
<path d="M104.189 18.0371C103.054 18.0371 102.175 18.4668 101.552 19.3262C100.93 20.179 100.618 21.3704 100.618 22.9004C100.618 26.084 101.808 27.6758 104.189 27.6758C105.187 27.6758 106.397 27.4251 107.817 26.9238V29.4629C106.65 29.9512 105.346 30.1953 103.906 30.1953C101.838 30.1953 100.255 29.5671 99.1592 28.3105C98.0632 27.0475 97.5152 25.2376 97.5152 22.8809C97.5152 21.3965 97.7843 20.0977 98.3226 18.9844C98.8609 17.8646 99.6327 17.0085 100.638 16.416C101.65 15.8171 102.833 15.5176 104.189 15.5176C105.57 15.5176 106.958 15.8529 108.352 16.5234L107.379 18.9844C106.848 18.7305 106.313 18.5091 105.774 18.3203C105.236 18.1315 104.707 18.0371 104.189 18.0371Z" fill="black"/>
<path d="M116.339 30H113.323V18.2422H109.461V15.7227H120.201V18.2422H116.339V30Z" fill="black"/>
<path d="M125.405 22.0605H126.378C127.331 22.0605 128.035 21.901 128.489 21.582C128.943 21.263 129.17 20.7617 129.17 20.0781C129.17 19.401 128.937 18.9193 128.47 18.6328C128.009 18.3464 127.293 18.2031 126.32 18.2031H125.405V22.0605ZM125.405 24.5215V30H122.39V15.7227H126.534C128.466 15.7227 129.896 16.0775 130.824 16.7871C131.751 17.4902 132.215 18.5612 132.215 20C132.215 20.8398 131.985 21.5885 131.524 22.2461C131.064 22.8971 130.412 23.4082 129.569 23.7793C131.709 26.9889 133.103 29.0625 133.752 30H130.406L127.01 24.5215H125.405Z" fill="black"/>
<path d="M148.451 22.8418C148.451 25.2051 147.867 27.0215 146.7 28.291C145.533 29.5605 143.859 30.1953 141.68 30.1953C139.501 30.1953 137.828 29.5605 136.661 28.291C135.493 27.0215 134.91 25.1986 134.91 22.8223C134.91 20.446 135.493 18.6328 136.661 17.3828C137.834 16.1263 139.514 15.498 141.7 15.498C143.885 15.498 145.555 16.1296 146.71 17.3926C147.87 18.6556 148.451 20.472 148.451 22.8418ZM138.071 22.8418C138.071 24.4368 138.373 25.638 138.976 26.4453C139.579 27.2526 140.48 27.6562 141.68 27.6562C144.086 27.6562 145.289 26.0514 145.289 22.8418C145.289 19.6257 144.093 18.0176 141.7 18.0176C140.5 18.0176 139.595 18.4245 138.986 19.2383C138.376 20.0456 138.071 21.2467 138.071 22.8418Z" fill="black"/>
<path d="M159.589 22.4414H160.582C161.509 22.4414 162.203 22.2591 162.663 21.8945C163.124 21.5234 163.354 20.9863 163.354 20.2832C163.354 19.5736 163.16 19.0495 162.77 18.7109C162.388 18.3724 161.785 18.2031 160.961 18.2031H159.589V22.4414ZM166.399 20.1758C166.399 21.7122 165.919 22.8874 164.959 23.7012C164.006 24.515 162.647 24.9219 160.883 24.9219H159.589V30H156.574V15.7227H161.117C162.842 15.7227 164.152 16.097 165.047 16.8457C165.948 17.5879 166.399 18.6979 166.399 20.1758Z" fill="black"/>
<path d="M169.084 30V15.7227H172.1V27.5H177.868V30H169.084Z" fill="black"/>
<path d="M189.055 30L188.024 26.6016H182.839L181.808 30H178.559L183.579 15.6641H187.266L192.305 30H189.055ZM187.304 24.0625C186.351 20.9831 185.813 19.2415 185.69 18.8379C185.573 18.4342 185.489 18.1152 185.437 17.8809C185.223 18.7142 184.61 20.7747 183.598 24.0625H187.304Z" fill="black"/>
<path d="M200.145 18.0371C199.01 18.0371 198.132 18.4668 197.509 19.3262C196.887 20.179 196.575 21.3704 196.575 22.9004C196.575 26.084 197.765 27.6758 200.145 27.6758C201.144 27.6758 202.354 27.4251 203.774 26.9238V29.4629C202.607 29.9512 201.303 30.1953 199.863 30.1953C197.794 30.1953 196.212 29.5671 195.116 28.3105C194.02 27.0475 193.472 25.2376 193.472 22.8809C193.472 21.3965 193.741 20.0977 194.279 18.9844C194.818 17.8646 195.589 17.0085 196.595 16.416C197.606 15.8171 198.79 15.5176 200.145 15.5176C201.527 15.5176 202.915 15.8529 204.309 16.5234L203.336 18.9844C202.804 18.7305 202.269 18.5091 201.731 18.3203C201.193 18.1315 200.664 18.0371 200.145 18.0371Z" fill="black"/>
<path d="M215 30H206.809V15.7227H215V18.2031H209.825V21.3379H214.64V23.8184H209.825V27.5H215V30Z" fill="black"/>
</g>
<defs>
<clipPath id="clip0_6792_16">
<rect width="215" height="46" fill="white"/>
</clipPath>
</defs>
</svg>
