<svg width="24" height="24" viewBox="0 0 24 24" fill="none" xmlns="http://www.w3.org/2000/svg">
<path d="M16.6235 3.00375L14.225 3C11.5302 3 9.78881 4.73871 9.78881 7.42982V9.47227H7.37715C7.16876 9.47227 7 9.63668 7 9.83949V12.7988C7 13.0016 7.16895 13.1658 7.37715 13.1658H9.78881V20.633C9.78881 20.8358 9.95756 21 10.166 21H13.3125C13.5209 21 13.6896 20.8356 13.6896 20.633V13.1658H16.5094C16.7178 13.1658 16.8866 13.0016 16.8866 12.7988L16.8877 9.83949C16.8877 9.74211 16.8479 9.64886 16.7773 9.57994C16.7067 9.51103 16.6104 9.47227 16.5104 9.47227H13.6896V7.74086C13.6896 6.90868 13.8934 6.48622 15.0074 6.48622L16.6231 6.48566C16.8313 6.48566 17.0001 6.32124 17.0001 6.11863V3.37077C17.0001 3.16835 16.8315 3.00412 16.6235 3.00375Z" fill="white"/>
</svg>
