<svg width="24" height="24" viewBox="0 0 24 24" fill="none" xmlns="http://www.w3.org/2000/svg">
<path d="M12 21C11.7153 21 11.4408 20.8957 11.2268 20.7061C10.4189 19.9914 9.63992 19.3198 8.95267 18.7274L8.94916 18.7243C6.93423 16.9873 5.19427 15.4873 3.98364 14.0096C2.63034 12.3576 2 10.7914 2 9.08032C2 7.41788 2.56351 5.88418 3.58661 4.76153C4.62192 3.62561 6.04251 3 7.58716 3C8.74164 3 9.79892 3.36922 10.7296 4.09733C11.1992 4.46486 11.6249 4.91466 12 5.43932C12.3752 4.91466 12.8008 4.46486 13.2706 4.09733C14.2012 3.36922 15.2585 3 16.413 3C17.9575 3 19.3782 3.62561 20.4135 4.76153C21.4366 5.88418 22 7.41788 22 9.08032C22 10.7914 21.3698 12.3576 20.0165 14.0094C18.8059 15.4873 17.0661 16.9872 15.0515 18.724C14.363 19.3173 13.5828 19.99 12.773 20.7064C12.5592 20.8957 12.2846 21 12 21ZM7.58716 4.18516C6.37363 4.18516 5.25882 4.67509 4.44781 5.56481C3.62476 6.46796 3.17142 7.71641 3.17142 9.08032C3.17142 10.5194 3.70013 11.8064 4.88559 13.2534C6.03137 14.652 7.73563 16.1212 9.70889 17.8224L9.71255 17.8255C10.4024 18.4202 11.1844 19.0944 11.9983 19.8144C12.8171 19.0931 13.6003 18.4177 14.2916 17.8221C16.2647 16.1209 17.9688 14.652 19.1146 13.2534C20.2999 11.8064 20.8286 10.5194 20.8286 9.08032C20.8286 7.71641 20.3752 6.46796 19.5522 5.56481C18.7413 4.67509 17.6264 4.18516 16.413 4.18516C15.524 4.18516 14.7078 4.47103 13.9872 5.03475C13.3449 5.53734 12.8975 6.17268 12.6352 6.61723C12.5003 6.84583 12.2629 6.98228 12 6.98228C11.7371 6.98228 11.4997 6.84583 11.3648 6.61723C11.1026 6.17268 10.6552 5.53734 10.0128 5.03475C9.29218 4.47103 8.47598 4.18516 7.58716 4.18516Z" fill="#005AAB"/>
</svg>
