<svg width="24" height="24" viewBox="0 0 24 24" fill="none" xmlns="http://www.w3.org/2000/svg">
<path d="M16 4H8C5.8002 4 4 5.79941 4 8V16C4 18.1998 5.8002 20 8 20H16C18.1998 20 20 18.1998 20 16V8C20 5.79941 18.1998 4 16 4ZM12 15.3332C10.1588 15.3332 8.6666 13.8404 8.6666 12C8.6666 10.1588 10.1588 8.6666 12 8.6666C13.8404 8.6666 15.3334 10.1588 15.3334 12C15.3334 13.8404 13.8404 15.3332 12 15.3332ZM16.3334 8.6666C15.7806 8.6666 15.3334 8.21879 15.3334 7.6666C15.3334 7.11441 15.7806 6.6666 16.3334 6.6666C16.8862 6.6666 17.3334 7.11441 17.3334 7.6666C17.3334 8.21879 16.8862 8.6666 16.3334 8.6666Z" fill="white"/>
</svg>
