<svg width="24" height="24" viewBox="0 0 24 24" fill="none" xmlns="http://www.w3.org/2000/svg">
<path d="M17.9368 12.7343C17.6458 12.3843 17.729 12.2286 17.9368 11.9157C17.9405 11.9121 20.3428 8.75071 20.5904 7.67857L20.5919 7.67786C20.7149 7.28714 20.5919 7 19.9971 7H18.029C17.528 7 17.297 7.24643 17.1732 7.52214C17.1732 7.52214 16.1712 9.80643 14.7537 11.2871C14.2961 11.715 14.0846 11.8521 13.8349 11.8521C13.7119 11.8521 13.5206 11.715 13.5206 11.3243V7.67786C13.5206 7.20929 13.3804 7 12.9656 7H9.87099C9.55673 7 9.36997 7.21857 9.36997 7.42214C9.36997 7.86643 10.0787 7.96857 10.1522 9.21857V11.9307C10.1522 12.525 10.039 12.6343 9.78774 12.6343C9.11871 12.6343 7.49491 10.3407 6.53262 7.71571C6.33837 7.20643 6.14861 7.00071 5.64384 7.00071H3.67502C3.11325 7.00071 3 7.24714 3 7.52286C3 8.01 3.66902 10.4321 6.11111 13.6321C7.73866 15.8164 10.0307 17 12.1158 17C13.3691 17 13.5221 16.7371 13.5221 16.285C13.5221 14.1979 13.4089 14.0007 14.0366 14.0007C14.3276 14.0007 14.8287 14.1379 15.9987 15.1914C17.336 16.4407 17.5558 17 18.3043 17H20.2723C20.8334 17 21.1176 16.7371 20.9541 16.2186C20.5799 15.1279 18.0508 12.8843 17.9368 12.7343Z" fill="white"/>
</svg>
