<svg width="24" height="24" viewBox="0 0 24 24" fill="none" xmlns="http://www.w3.org/2000/svg">
<path d="M20.6291 7.03419C20.4217 6.23876 19.8137 5.61173 19.0427 5.39755C17.6341 5 11.9998 5 11.9998 5C11.9998 5 6.36567 5 4.95711 5.38247C4.20092 5.59643 3.5781 6.23887 3.37068 7.03419C3 8.48702 3 11.5 3 11.5C3 11.5 3 14.5282 3.37068 15.9658C3.57832 16.7611 4.18609 17.3882 4.95722 17.6023C6.3805 18 12 18 12 18C12 18 17.6341 18 19.0427 17.6175C19.8138 17.4035 20.4217 16.7764 20.6294 15.9811C20.9999 14.5282 20.9999 11.5153 20.9999 11.5153C20.9999 11.5153 21.0148 8.48702 20.6291 7.03419ZM10.2059 14.2835V8.7165L14.8912 11.5L10.2059 14.2835Z" fill="white"/>
</svg>
