<svg width="55" height="55" viewBox="0 0 55 55" fill="none" xmlns="http://www.w3.org/2000/svg">
<path d="M46.764 9H8.236C7.64319 9.00068 7.07485 9.23648 6.65566 9.65566C6.23648 10.0748 6.00068 10.6432 6 11.236V41.508C6.00068 42.1008 6.23648 42.6692 6.65566 43.0883C7.07485 43.5075 7.64319 43.7433 8.236 43.744H23.4297L22.8444 48.4251C21.4154 48.9386 20.0479 49.6091 18.767 50.4245C18.6134 50.5269 18.4969 50.6759 18.4346 50.8497C18.3722 51.0234 18.3675 51.2126 18.421 51.3892C18.4745 51.5659 18.5833 51.7206 18.7316 51.8306C18.8798 51.9406 19.0594 52 19.244 52H35.756C35.9406 52 36.1202 51.9406 36.2684 51.8306C36.4167 51.7206 36.5255 51.5659 36.579 51.3892C36.6325 51.2126 36.6278 51.0234 36.5655 50.8497C36.5031 50.6759 36.3866 50.5269 36.233 50.4245C34.9521 49.6091 33.5846 48.9386 32.1556 48.4251L31.5703 43.744H46.764C47.3568 43.7433 47.9252 43.5075 48.3443 43.0883C48.7635 42.6692 48.9993 42.1008 49 41.508V11.236C48.9993 10.6432 48.7635 10.0748 48.3443 9.65566C47.9252 9.23648 47.3568 9.00068 46.764 9ZM8.236 10.72H46.764C46.9008 10.7201 47.032 10.7745 47.1287 10.8713C47.2255 10.968 47.2799 11.0992 47.28 11.236V35.144H7.72V11.236C7.72014 11.0992 7.77454 10.968 7.87128 10.8713C7.96802 10.7745 8.09919 10.7201 8.236 10.72ZM23.372 50.28H22.8108C24.1776 49.7302 25.8473 49.248 27.5 49.248C29.1467 49.248 30.8158 49.7302 32.1835 50.28H23.372ZM30.3552 47.8858C28.4819 47.4087 26.519 47.4087 24.6457 47.8858L25.1631 43.744H29.8369L30.3552 47.8858ZM47.28 41.508C47.2799 41.6448 47.2255 41.776 47.1287 41.8727C47.032 41.9695 46.9008 42.0239 46.764 42.024H8.236C8.09919 42.0239 7.96802 41.9695 7.87128 41.8727C7.77454 41.776 7.72014 41.6448 7.72 41.508V36.864H47.28V41.508Z" fill="#005AAB"/>
<path d="M26.124 40.304H28.876C29.1041 40.304 29.3229 40.2134 29.4842 40.0521C29.6454 39.8908 29.736 39.6721 29.736 39.444C29.736 39.2159 29.6454 38.9972 29.4842 38.8359C29.3229 38.6746 29.1041 38.584 28.876 38.584H26.124C25.896 38.584 25.6772 38.6746 25.5159 38.8359C25.3546 38.9972 25.264 39.2159 25.264 39.444C25.264 39.6721 25.3546 39.8908 25.5159 40.0521C25.6772 40.2134 25.896 40.304 26.124 40.304Z" fill="#005AAB"/>
<path d="M14.428 14.8481H16.5601L20.4921 26.644C20.5213 26.7317 20.5645 26.8141 20.62 26.8881C20.0803 26.8873 19.5585 27.0815 19.1506 27.4349C18.7428 27.7884 18.4763 28.2772 18.4002 28.8115C18.3241 29.3458 18.4435 29.8896 18.7366 30.3428C19.0296 30.796 19.4764 31.1282 19.9948 31.2781C20.5133 31.428 21.0684 31.3857 21.5581 31.1588C22.0478 30.932 22.4391 30.5359 22.6599 30.0434C22.8808 29.551 22.9164 28.9954 22.7601 28.4788C22.6038 27.9622 22.2662 27.5195 21.8095 27.2321H28.9872C28.971 27.402 28.962 27.574 28.962 27.7481C28.962 28.8196 29.2798 29.8672 29.8751 30.7581C30.4704 31.6491 31.3166 32.3436 32.3066 32.7536C33.2966 33.1637 34.386 33.271 35.437 33.062C36.488 32.8529 37.4534 32.3369 38.2111 31.5792C38.9688 30.8214 39.4848 29.8561 39.6939 28.8051C39.9029 27.7541 39.7956 26.6647 39.3856 25.6747C38.9755 24.6847 38.2811 23.8385 37.3901 23.2432C36.4991 22.6478 35.4516 22.3301 34.38 22.3301C34.2091 22.3301 34.0404 22.3387 33.8735 22.3545L35.1959 18.3881C35.239 18.2588 35.2507 18.1211 35.2302 17.9864C35.2097 17.8517 35.1574 17.7238 35.0777 17.6132C34.998 17.5027 34.8932 17.4126 34.7719 17.3505C34.6506 17.2884 34.5163 17.256 34.38 17.2561H23.372C23.1439 17.2561 22.9252 17.3467 22.7639 17.5079C22.6026 17.6692 22.512 17.888 22.512 18.1161C22.512 18.3441 22.6026 18.5629 22.7639 18.7242C22.9252 18.8854 23.1439 18.9761 23.372 18.9761H33.1867L32.3828 21.3874C32.3607 21.3857 32.3385 21.3841 32.316 21.3841H24.748C24.5199 21.3841 24.3012 21.4747 24.1399 21.6359C23.9786 21.7972 23.888 22.016 23.888 22.2441C23.888 22.4721 23.9786 22.6909 24.1399 22.8522C24.3012 23.0135 24.5199 23.1041 24.748 23.1041H31.5926C30.6509 23.672 29.903 24.5114 29.4469 25.5121H21.9279L17.9959 13.7161C17.9388 13.5449 17.8293 13.3959 17.6829 13.2904C17.5364 13.1848 17.3605 13.1281 17.18 13.1281H14.428C14.1999 13.1281 13.9812 13.2187 13.8199 13.3799C13.6586 13.5412 13.568 13.76 13.568 13.9881C13.568 14.2161 13.6586 14.4349 13.8199 14.5962C13.9812 14.7574 14.1999 14.8481 14.428 14.8481ZM20.62 29.6401C20.5179 29.6401 20.4182 29.6098 20.3333 29.5531C20.2485 29.4964 20.1823 29.4158 20.1433 29.3215C20.1042 29.2272 20.094 29.1235 20.1139 29.0234C20.1338 28.9233 20.183 28.8314 20.2551 28.7592C20.3273 28.687 20.4192 28.6379 20.5193 28.618C20.6194 28.5981 20.7232 28.6083 20.8175 28.6473C20.9117 28.6864 20.9923 28.7525 21.049 28.8374C21.1057 28.9222 21.136 29.022 21.136 29.1241C21.1359 29.2609 21.0814 29.392 20.9847 29.4888C20.888 29.5855 20.7568 29.6399 20.62 29.6401ZM38.078 27.7481C38.078 28.4795 37.8611 29.1944 37.4548 29.8026C37.0484 30.4107 36.4709 30.8847 35.7952 31.1646C35.1194 31.4445 34.3759 31.5177 33.6586 31.375C32.9412 31.2323 32.2823 30.8801 31.7651 30.3629C31.2479 29.8458 30.8957 29.1868 30.753 28.4695C30.6104 27.7522 30.6836 27.0086 30.9635 26.3329C31.2434 25.6572 31.7174 25.0796 32.3255 24.6733C32.9336 24.2669 33.6486 24.0501 34.38 24.0501C35.3604 24.0512 36.3004 24.4411 36.9936 25.1344C37.6869 25.8277 38.0769 26.7676 38.078 27.7481Z" fill="#005AAB"/>
<path d="M32.6194 28.5172L33.9954 29.2052C34.1829 29.2989 34.3981 29.3209 34.6007 29.2671C34.8033 29.2132 34.9792 29.0872 35.0955 28.9128L36.4715 26.8488C36.5955 26.659 36.6396 26.4279 36.5941 26.2058C36.5486 25.9837 36.4173 25.7885 36.2286 25.6628C36.04 25.537 35.8093 25.4908 35.5868 25.5342C35.3643 25.5777 35.1679 25.7072 35.0404 25.8947L34.0858 27.327L33.3892 26.9786C33.1855 26.8787 32.9505 26.8634 32.7355 26.936C32.5205 27.0086 32.3429 27.1632 32.2414 27.3662C32.1399 27.5691 32.1228 27.804 32.1937 28.0195C32.2646 28.2351 32.4179 28.4139 32.62 28.5169L32.6194 28.5172Z" fill="#005AAB"/>
</svg>
