<svg width="24" height="24" viewBox="0 0 24 24" fill="none" xmlns="http://www.w3.org/2000/svg">
<path fill-rule="evenodd" clip-rule="evenodd" d="M15.725 22V14.255H18.325L18.714 11.237H15.724V9.31C15.724 8.436 15.967 7.84 17.221 7.84H18.819V5.14C18.0451 5.05764 17.2673 5.01758 16.489 5.02C14.185 5.02 12.608 6.427 12.608 9.01V11.237H10V14.255H12.607V22H3.104C2.494 22 2 21.506 2 20.896V3.104C2 2.494 2.494 2 3.104 2H20.896C21.506 2 22 2.494 22 3.104V20.896C22 21.506 21.506 22 20.896 22H15.725Z" fill="white"/>
</svg>
