<svg width="79" height="15" viewBox="0 0 79 15" fill="none" xmlns="http://www.w3.org/2000/svg">
<path d="M19.4205 0.311279L13.76 14.6956H17.6666L18.495 12.4351H24.4674L25.2958 14.6956H29.2024L23.5266 0.311279H19.4205ZM19.6302 9.34806L21.1079 5.18939C21.2869 4.72505 21.4096 4.225 21.4863 3.73004C21.563 4.225 21.6806 4.72505 21.8647 5.18939L23.3424 9.34806H19.6302Z" fill="white"/>
<path d="M19.4205 0.311279L13.76 14.6956H17.6666L18.495 12.4351H24.4674L25.2958 14.6956H29.2024L23.5266 0.311279H19.4205ZM19.6302 9.34806L21.1079 5.18939C21.2869 4.72505 21.4096 4.225 21.4863 3.73004C21.563 4.225 21.6806 4.72505 21.8647 5.18939L23.3424 9.34806H19.6302Z" fill="url(#paint0_linear_110_368)"/>
<path d="M73.7399 7.21005L69.2911 0.311279H64.234L68.8818 7.21005L63.9321 14.6956H68.3709L71.3008 9.87363L74.2256 14.6956H78.6947L73.7399 7.21005Z" fill="white"/>
<path d="M73.7399 7.21005L69.2911 0.311279H64.234L68.8818 7.21005L63.9321 14.6956H68.3709L71.3008 9.87363L74.2256 14.6956H78.6947L73.7399 7.21005Z" fill="url(#paint1_linear_110_368)"/>
<path d="M50.9394 0.311279H45.238V14.7109H49.0424V10.1899H50.9292C54.4881 10.1746 57.2084 9.04699 57.2084 5.25063C57.2033 1.45427 54.4983 0.311279 50.9394 0.311279ZM51.1235 6.89367H49.0372V3.59737H51.1184C52.2791 3.59737 53.3069 3.94435 53.3069 5.24041C53.3069 6.5314 52.2842 6.89367 51.1235 6.89367Z" fill="white"/>
<path d="M50.9394 0.311279H45.238V14.7109H49.0424V10.1899H50.9292C54.4881 10.1746 57.2084 9.04699 57.2084 5.25063C57.2033 1.45427 54.4983 0.311279 50.9394 0.311279ZM51.1235 6.89367H49.0372V3.59737H51.1184C52.2791 3.59737 53.3069 3.94435 53.3069 5.24041C53.3069 6.5314 52.2842 6.89367 51.1235 6.89367Z" fill="url(#paint2_linear_110_368)"/>
<path d="M9.15802 11.6391C8.84103 11.7156 8.50863 11.7463 8.1763 11.7463C6.52977 11.7463 3.90662 11.0676 3.90662 7.5162C3.90662 4.56176 6.11046 3.35754 8.43196 3.35754C9.87903 3.35754 11.3312 3.76575 12.4153 4.50052V0.90317C10.9989 0.316371 9.49042 9.11001e-06 7.95126 9.11001e-06C3.92198 -0.00509351 0 2.13291 0 7.49578C0 12.7209 3.89128 14.9967 7.99731 14.9967C9.64383 14.9813 11.2545 14.665 12.7783 14.0322V6.78649H9.15802V11.6391Z" fill="white"/>
<path d="M9.15802 11.6391C8.84103 11.7156 8.50863 11.7463 8.1763 11.7463C6.52977 11.7463 3.90662 11.0676 3.90662 7.5162C3.90662 4.56176 6.11046 3.35754 8.43196 3.35754C9.87903 3.35754 11.3312 3.76575 12.4153 4.50052V0.90317C10.9989 0.316371 9.49042 9.11001e-06 7.95126 9.11001e-06C3.92198 -0.00509351 0 2.13291 0 7.49578C0 12.7209 3.89128 14.9967 7.99731 14.9967C9.64383 14.9813 11.2545 14.665 12.7783 14.0322V6.78649H9.15802V11.6391Z" fill="url(#paint3_linear_110_368)"/>
<path d="M39.8178 9.47048C41.403 8.8377 42.5791 7.54165 42.5791 5.14852C42.5791 1.35217 39.5929 0.301025 36.6629 0.301025H30.583V14.6853H34.4028V10.0164H36.0492L39.4906 14.7006H43.791L39.8178 9.47048ZM36.8317 6.92426H34.4028V3.59732H36.8163C37.9055 3.59732 38.6418 4.15351 38.6418 5.27098C38.6418 6.38338 37.9208 6.92426 36.8317 6.92426Z" fill="white"/>
<path d="M39.8178 9.47048C41.403 8.8377 42.5791 7.54165 42.5791 5.14852C42.5791 1.35217 39.5929 0.301025 36.6629 0.301025H30.583V14.6853H34.4028V10.0164H36.0492L39.4906 14.7006H43.791L39.8178 9.47048ZM36.8317 6.92426H34.4028V3.59732H36.8163C37.9055 3.59732 38.6418 4.15351 38.6418 5.27098C38.6418 6.38338 37.9208 6.92426 36.8317 6.92426Z" fill="url(#paint4_linear_110_368)"/>
<path d="M58.9827 14.6956H62.8022V0.311279H58.9827V14.6956Z" fill="white"/>
<path d="M58.9827 14.6956H62.8022V0.311279H58.9827V14.6956Z" fill="url(#paint5_linear_110_368)"/>
<path d="M73.8884 0.221191H78.2962V4.61965H73.8884V0.221191Z" fill="#F1B508"/>
<defs>
<linearGradient id="paint0_linear_110_368" x1="21.4812" y1="0.311279" x2="21.4812" y2="14.6956" gradientUnits="userSpaceOnUse">
<stop stop-color="white"/>
<stop offset="1" stop-color="white" stop-opacity="0"/>
</linearGradient>
<linearGradient id="paint1_linear_110_368" x1="71.3134" y1="0.311279" x2="71.3134" y2="14.6956" gradientUnits="userSpaceOnUse">
<stop stop-color="white"/>
<stop offset="1" stop-color="white" stop-opacity="0"/>
</linearGradient>
<linearGradient id="paint2_linear_110_368" x1="51.2232" y1="0.311279" x2="51.2232" y2="14.7109" gradientUnits="userSpaceOnUse">
<stop stop-color="white"/>
<stop offset="1" stop-color="white" stop-opacity="0"/>
</linearGradient>
<linearGradient id="paint3_linear_110_368" x1="6.38915" y1="0" x2="6.38915" y2="14.9967" gradientUnits="userSpaceOnUse">
<stop stop-color="white"/>
<stop offset="1" stop-color="white" stop-opacity="0"/>
</linearGradient>
<linearGradient id="paint4_linear_110_368" x1="37.187" y1="0.301025" x2="37.187" y2="14.7006" gradientUnits="userSpaceOnUse">
<stop stop-color="white"/>
<stop offset="1" stop-color="white" stop-opacity="0"/>
</linearGradient>
<linearGradient id="paint5_linear_110_368" x1="60.8924" y1="0.311279" x2="60.8924" y2="14.6956" gradientUnits="userSpaceOnUse">
<stop stop-color="white"/>
<stop offset="1" stop-color="white" stop-opacity="0"/>
</linearGradient>
</defs>
</svg>
