<svg width="24" height="24" viewBox="0 0 24 24" fill="none" xmlns="http://www.w3.org/2000/svg">
<path d="M8.283 20.263C15.83 20.263 19.959 14.004 19.959 8.586C19.959 8.41 19.959 8.234 19.951 8.058C20.7551 7.47532 21.4489 6.75406 22 5.928C21.2496 6.25954 20.4544 6.47824 19.64 6.577C20.498 6.06329 21.1405 5.25562 21.448 4.304C20.6415 4.78246 19.7586 5.11837 18.838 5.297C18.4548 4.88758 17.9916 4.56121 17.4771 4.3381C16.9626 4.115 16.4078 3.99993 15.847 4C14.7583 4.00079 13.7143 4.43364 12.9445 5.2035C12.1746 5.97335 11.7418 7.01726 11.741 8.106C11.741 8.426 11.781 8.738 11.845 9.042C10.2129 8.96004 8.61627 8.53575 7.15879 7.79667C5.7013 7.05759 4.41555 6.02025 3.385 4.752C2.86128 5.65655 2.70141 6.72651 2.93783 7.74464C3.17426 8.76278 3.78927 9.65279 4.658 10.234C4.00708 10.2115 3.37059 10.0361 2.8 9.722V9.778C2.80088 10.7253 3.12873 11.6433 3.72816 12.3768C4.32759 13.1103 5.16186 13.6144 6.09 13.804C5.73825 13.901 5.37488 13.9495 5.01 13.948C4.745 13.948 4.489 13.924 4.24 13.876C4.50164 14.6918 5.01201 15.4053 5.69958 15.9164C6.38714 16.4275 7.21742 16.7106 8.074 16.726C6.62055 17.8686 4.82477 18.4885 2.976 18.486C2.648 18.486 2.32 18.47 2 18.43C3.87671 19.6276 6.05673 20.2636 8.283 20.263Z" fill="white"/>
</svg>
