<svg width="328" height="198" viewBox="0 0 328 198" fill="none" xmlns="http://www.w3.org/2000/svg">
<path d="M132.042 36.926L134.837 34.1317V34.1317L132.042 36.926ZM132.042 149.681L134.837 152.476L132.042 149.681ZM94.6221 95.4466H98.5739L91.0973 93.6598L94.6221 95.4466ZM82.5882 119.185L79.0635 117.398L79.0585 117.407L79.0536 117.417L82.5882 119.185ZM79.621 122.317L81.3883 125.851L81.5022 125.794L81.6122 125.73L79.621 122.317ZM59.8394 121.822L57.3369 124.881L57.337 124.881L59.8394 121.822ZM57.5315 119.185L61.1638 117.628L61.1138 117.511L61.0563 117.398L57.5315 119.185ZM45.4977 95.4466L49.0225 93.6598L41.5459 95.4466H45.4977ZM44.1789 149.681L41.3846 146.887H41.3846L44.1789 149.681ZM48.465 40.0581L51.9337 38.1648L51.9266 38.1518L51.9195 38.1389L48.465 40.0581ZM70.0599 79.6213L66.5912 81.5147L70.0599 87.8696L73.5286 81.5147L70.0599 79.6213ZM91.6548 40.0581L88.2003 38.1389L88.1932 38.1518L88.1861 38.1648L91.6548 40.0581ZM98.7432 39.559H128.91V31.6554H98.7432V39.559ZM128.91 39.559C129.024 39.559 129.062 39.5771 129.066 39.5791C129.073 39.5819 129.134 39.6069 129.248 39.7204L134.837 34.1317C133.24 32.535 131.2 31.6554 128.91 31.6554V39.559ZM129.248 39.7204C129.361 39.8339 129.386 39.8951 129.389 39.9019C129.391 39.9066 129.409 39.9445 129.409 40.0581H137.313C137.313 37.7682 136.433 35.7283 134.837 34.1317L129.248 39.7204ZM129.409 40.0581V146.549H137.313V40.0581H129.409ZM129.409 146.549C129.409 146.663 129.391 146.701 129.389 146.705C129.386 146.712 129.361 146.773 129.248 146.887L134.837 152.476C136.433 150.879 137.313 148.839 137.313 146.549H129.409ZM129.248 146.887C129.134 147 129.073 147.025 129.066 147.028C129.062 147.03 129.024 147.048 128.91 147.048V154.952C131.2 154.952 133.24 154.072 134.837 152.476L129.248 146.887ZM128.91 147.048H99.0729V154.952H128.91V147.048ZM99.0729 147.048C98.9594 147.048 98.9214 147.03 98.9168 147.028C98.91 147.025 98.8487 147 98.7352 146.887L93.1465 152.476C94.7431 154.072 96.783 154.952 99.0729 154.952V147.048ZM98.7352 146.887C98.6217 146.773 98.5967 146.712 98.5939 146.705C98.5919 146.701 98.5739 146.663 98.5739 146.549H90.6702C90.6702 148.839 91.5498 150.879 93.1465 152.476L98.7352 146.887ZM98.5739 146.549V95.4466H90.6702V146.549H98.5739ZM91.0973 93.6598L79.0635 117.398L86.113 120.971L98.1468 97.2335L91.0973 93.6598ZM79.0536 117.417C78.7505 118.024 78.3099 118.506 77.6298 118.903L81.6122 125.73C83.5696 124.588 85.1073 122.983 86.1228 120.952L79.0536 117.417ZM77.8537 118.782C77.0182 119.2 76.3007 119.354 75.6647 119.354V127.258C77.6662 127.258 79.5863 126.752 81.3883 125.851L77.8537 118.782ZM75.6647 119.354H64.4551V127.258H75.6647V119.354ZM64.4551 119.354C63.3129 119.354 62.7129 119.067 62.3418 118.764L57.337 124.881C59.3837 126.555 61.8608 127.258 64.4551 127.258V119.354ZM62.3418 118.764C61.8543 118.365 61.5314 118.049 61.3298 117.819C61.1186 117.577 61.115 117.514 61.1638 117.628L53.8993 120.741C54.6132 122.407 55.9927 123.781 57.3369 124.881L62.3418 118.764ZM61.0563 117.398L49.0225 93.6598L41.973 97.2335L54.0068 120.971L61.0563 117.398ZM41.5459 95.4466V146.549H49.4495V95.4466H41.5459ZM41.5459 146.549C41.5459 146.663 41.5278 146.701 41.5259 146.705C41.523 146.712 41.4981 146.773 41.3846 146.887L46.9733 152.476C48.5699 150.879 49.4495 148.839 49.4495 146.549H41.5459ZM41.3846 146.887C41.2711 147 41.2098 147.025 41.203 147.028C41.1984 147.03 41.1604 147.048 41.0469 147.048V154.952C43.3368 154.952 45.3767 154.072 46.9733 152.476L41.3846 146.887ZM41.0469 147.048H11.2096V154.952H41.0469V147.048ZM11.2096 147.048C11.096 147.048 11.058 147.03 11.0534 147.028C11.0466 147.025 10.9854 147 10.8718 146.887L5.28314 152.476C6.87979 154.072 8.91964 154.952 11.2096 154.952V147.048ZM10.8718 146.887C10.7583 146.773 10.7334 146.712 10.7305 146.705C10.7286 146.701 10.7105 146.663 10.7105 146.549H2.80691C2.80691 148.839 3.6865 150.879 5.28314 152.476L10.8718 146.887ZM10.7105 146.549V40.0581H2.80691V146.549H10.7105ZM10.7105 40.0581C10.7105 39.9445 10.7286 39.9066 10.7305 39.902C10.7334 39.8951 10.7583 39.8339 10.8718 39.7204L5.28314 34.1317C3.6865 35.7283 2.80691 37.7682 2.80691 40.0581H10.7105ZM10.8718 39.7204C10.9854 39.6069 11.0466 39.5819 11.0534 39.5791C11.058 39.5771 11.096 39.559 11.2096 39.559V31.6554C8.91964 31.6554 6.87978 32.535 5.28314 34.1317L10.8718 39.7204ZM11.2096 39.559H41.3765V31.6554H11.2096V39.559ZM41.3765 39.559C42.8466 39.559 43.9713 40.1067 45.0105 41.9773L51.9195 38.1389C49.6617 34.075 46.0608 31.6554 41.3765 31.6554V39.559ZM44.9962 41.9515L66.5912 81.5147L73.5286 77.728L51.9337 38.1648L44.9962 41.9515ZM73.5286 81.5147L95.1235 41.9515L88.1861 38.1648L66.5912 77.728L73.5286 81.5147ZM95.1093 41.9773C96.1485 40.1067 97.2732 39.559 98.7432 39.559V31.6554C94.059 31.6554 90.4581 34.075 88.2003 38.1389L95.1093 41.9773Z" fill="#0B972A"/>
<path d="M150.342 50.9589H156.59C156.836 50.9589 157.049 51.0485 157.228 51.2276C157.407 51.4068 157.497 51.6195 157.497 51.8659V61.7414L164.819 51.6307C165.155 51.1829 165.592 50.9589 166.129 50.9589H171.571C171.817 50.9589 172.03 51.0485 172.209 51.2276C172.388 51.4068 172.478 51.6195 172.478 51.8659V73.5652C172.478 73.8116 172.388 74.0243 172.209 74.2034C172.03 74.3826 171.817 74.4722 171.571 74.4722H165.323C165.077 74.4722 164.864 74.3826 164.685 74.2034C164.506 74.0243 164.416 73.8116 164.416 73.5652V64.4287L157.093 73.7668C156.735 74.237 156.287 74.4722 155.75 74.4722H150.342C150.095 74.4722 149.883 74.3826 149.704 74.2034C149.524 74.0243 149.435 73.8116 149.435 73.5652V51.8659C149.435 51.6195 149.524 51.4068 149.704 51.2276C149.883 51.0485 150.095 50.9589 150.342 50.9589ZM180.459 50.9589H193.022C196.202 50.9589 198.721 51.7315 200.58 53.2767C202.439 54.8218 203.368 56.8036 203.368 59.2221C203.368 61.6407 202.584 63.5665 201.017 64.9997C199.449 66.4105 196.784 67.1159 193.022 67.1159H188.588V73.5652C188.588 73.8116 188.499 74.0243 188.319 74.2034C188.14 74.3826 187.928 74.4722 187.681 74.4722H180.459C180.213 74.4722 180 74.3826 179.821 74.2034C179.642 74.0243 179.552 73.8116 179.552 73.5652V51.8659C179.552 51.6195 179.642 51.4068 179.821 51.2276C180 51.0485 180.213 50.9589 180.459 50.9589ZM188.622 57.2067V60.9017H192.888C193.403 60.9017 193.817 60.7449 194.131 60.4314C194.466 60.1179 194.634 59.6812 194.634 59.1214C194.634 58.5615 194.478 58.1025 194.164 57.7442C193.851 57.3859 193.425 57.2067 192.888 57.2067H188.622Z" fill="white"/>
<path d="M158.37 94.717H164.416C167.417 94.717 169.735 95.3664 171.369 96.6653C173.027 97.9417 173.855 99.722 173.855 102.006C173.855 104.29 173.027 106.093 171.369 107.414C169.712 108.735 167.383 109.396 164.383 109.396H150.543C150.297 109.396 150.084 109.306 149.905 109.127C149.726 108.948 149.636 108.735 149.636 108.489V86.7897C149.636 86.5434 149.726 86.3306 149.905 86.1515C150.084 85.9723 150.297 85.8827 150.543 85.8827H170.295C170.541 85.8827 170.754 85.9723 170.933 86.1515C171.112 86.3306 171.201 86.5434 171.201 86.7897V91.4923C171.201 91.7387 171.112 91.9514 170.933 92.1306C170.754 92.3097 170.541 92.3993 170.295 92.3993H158.37V94.717ZM158.37 100.327V103.618H163.241C163.756 103.618 164.136 103.451 164.383 103.115C164.651 102.756 164.786 102.364 164.786 101.939V101.905C164.786 101.48 164.64 101.11 164.349 100.797C164.08 100.483 163.711 100.327 163.241 100.327H158.37ZM187.077 102.846H200.479C200.725 102.846 200.938 102.935 201.117 103.115C201.296 103.294 201.386 103.506 201.386 103.753V108.489C201.386 108.735 201.296 108.948 201.117 109.127C200.938 109.306 200.725 109.396 200.479 109.396H179.25C179.004 109.396 178.791 109.306 178.612 109.127C178.433 108.948 178.343 108.735 178.343 108.489V86.7897C178.343 86.5434 178.433 86.3306 178.612 86.1515C178.791 85.9723 179.004 85.8827 179.25 85.8827H200.143C200.39 85.8827 200.602 85.9723 200.781 86.1515C200.961 86.3306 201.05 86.5434 201.05 86.7897V91.5259C201.05 91.7723 200.961 91.985 200.781 92.1641C200.602 92.3433 200.39 92.4329 200.143 92.4329H187.077V94.5491H198.296C198.542 94.5491 198.755 94.6386 198.934 94.8178C199.113 94.9969 199.203 95.2097 199.203 95.456V99.8227C199.203 100.069 199.113 100.282 198.934 100.461C198.755 100.64 198.542 100.73 198.296 100.73H187.077V102.846ZM228.749 102.342C228.749 104.626 227.663 106.429 225.491 107.75C223.341 109.071 220.542 109.732 217.093 109.732C212.503 109.732 209.177 108.612 207.117 106.373C206.042 105.186 205.505 103.977 205.505 102.745C205.505 102.521 205.572 102.342 205.706 102.208C205.863 102.073 206.042 102.006 206.244 102.006H213.6C213.846 102.006 214.092 102.129 214.339 102.376C214.585 102.6 214.764 102.756 214.876 102.846C215.235 103.092 215.884 103.215 216.824 103.215C218.728 103.215 219.68 102.734 219.68 101.771C219.68 101.01 218.818 100.629 217.093 100.629H212.626C212.379 100.629 212.167 100.539 211.987 100.36C211.808 100.181 211.719 99.9683 211.719 99.722V95.5904C211.719 95.344 211.808 95.1313 211.987 94.9521C212.167 94.773 212.379 94.6834 212.626 94.6834H217.093C218.818 94.6834 219.68 94.3027 219.68 93.5413C219.68 93.0711 219.445 92.7128 218.974 92.4665C218.504 92.2201 217.922 92.097 217.228 92.097C216.533 92.097 215.996 92.1417 215.615 92.2313C215.257 92.2985 215.011 92.3769 214.876 92.4665C214.764 92.556 214.585 92.724 214.339 92.9703C214.092 93.1942 213.846 93.3062 213.6 93.3062H206.244C206.042 93.3062 205.863 93.239 205.706 93.1047C205.572 92.9703 205.505 92.7912 205.505 92.5672C205.505 91.0445 206.355 89.5441 208.057 88.0661C208.908 87.3271 210.118 86.7225 211.685 86.2522C213.253 85.782 215.055 85.5468 217.093 85.5468C220.519 85.5468 223.319 86.2186 225.491 87.5623C227.663 88.9059 228.749 90.7198 228.749 93.0039C228.749 94.1908 228.368 95.2097 227.607 96.0606C226.846 96.9116 226.118 97.4378 225.424 97.6394C226.095 97.8185 226.812 98.356 227.573 99.2517C228.357 100.147 228.749 101.178 228.749 102.342Z" fill="white"/>
<path d="M161.091 141.489H154.171C153.925 141.489 153.712 141.399 153.533 141.22C153.354 141.041 153.264 140.828 153.264 140.582V118.882C153.264 118.636 153.354 118.423 153.533 118.244C153.712 118.065 153.925 117.976 154.171 117.976H172.411C172.657 117.976 172.87 118.065 173.049 118.244C173.228 118.423 173.318 118.636 173.318 118.882V124.291C173.318 124.537 173.228 124.75 173.049 124.929C172.87 125.108 172.657 125.197 172.411 125.197H161.964L161.998 140.582C161.998 140.828 161.908 141.041 161.729 141.22C161.55 141.399 161.337 141.489 161.091 141.489ZM180.459 117.976H193.022C196.202 117.976 198.721 118.748 200.58 120.293C202.439 121.838 203.368 123.82 203.368 126.239C203.368 128.657 202.584 130.583 201.017 132.016C199.449 133.427 196.784 134.132 193.022 134.132H188.588V140.582C188.588 140.828 188.499 141.041 188.319 141.22C188.14 141.399 187.928 141.489 187.681 141.489H180.459C180.213 141.489 180 141.399 179.821 141.22C179.642 141.041 179.552 140.828 179.552 140.582V118.882C179.552 118.636 179.642 118.423 179.821 118.244C180 118.065 180.213 117.976 180.459 117.976ZM188.622 124.223V127.918H192.888C193.403 127.918 193.817 127.762 194.131 127.448C194.466 127.134 194.634 126.698 194.634 126.138C194.634 125.578 194.478 125.119 194.164 124.761C193.851 124.402 193.425 124.223 192.888 124.223H188.622ZM211.786 141.489H205.437C205.236 141.489 205.057 141.422 204.9 141.287C204.766 141.13 204.698 140.985 204.698 140.851C204.698 140.716 204.71 140.615 204.732 140.548L212.055 119.084C212.256 118.345 212.76 117.976 213.566 117.976H222.904C223.711 117.976 224.214 118.345 224.416 119.084L231.739 140.548C231.761 140.615 231.772 140.716 231.772 140.851C231.772 140.985 231.694 141.13 231.537 141.287C231.403 141.422 231.235 141.489 231.033 141.489H224.685C223.968 141.489 223.464 141.108 223.173 140.347L222.333 137.995H214.137L213.298 140.347C213.006 141.108 212.503 141.489 211.786 141.489ZM220.62 131.445L218.235 124.458L215.85 131.445H220.62ZM250.939 117.976H257.859C258.105 117.976 258.318 118.065 258.497 118.244C258.676 118.423 258.766 118.636 258.766 118.882V140.582C258.766 140.828 258.676 141.041 258.497 141.22C258.318 141.399 258.105 141.489 257.859 141.489H250.939C250.693 141.489 250.48 141.399 250.301 141.22C250.122 141.041 250.032 140.828 250.032 140.582V133.427H243.314V140.582C243.314 140.828 243.225 141.041 243.045 141.22C242.866 141.399 242.654 141.489 242.407 141.489H235.488C235.241 141.489 235.029 141.41 234.849 141.254C234.67 141.074 234.581 140.851 234.581 140.582V118.882C234.581 118.636 234.67 118.423 234.849 118.244C235.029 118.065 235.241 117.976 235.488 117.976H242.407C242.654 117.976 242.866 118.065 243.045 118.244C243.225 118.423 243.314 118.636 243.314 118.882V125.768H250.032V118.882C250.032 118.636 250.122 118.423 250.301 118.244C250.48 118.065 250.693 117.976 250.939 117.976ZM264.497 117.976H270.744C270.991 117.976 271.203 118.065 271.383 118.244C271.562 118.423 271.651 118.636 271.651 118.882V128.758L278.974 118.647C279.31 118.199 279.747 117.976 280.284 117.976H285.726C285.972 117.976 286.185 118.065 286.364 118.244C286.543 118.423 286.633 118.636 286.633 118.882V140.582C286.633 140.828 286.543 141.041 286.364 141.22C286.185 141.399 285.972 141.489 285.726 141.489H279.478C279.232 141.489 279.019 141.399 278.84 141.22C278.66 141.041 278.571 140.828 278.571 140.582V131.445L271.248 140.783C270.89 141.254 270.442 141.489 269.905 141.489H264.497C264.25 141.489 264.037 141.399 263.858 141.22C263.679 141.041 263.59 140.828 263.59 140.582V118.882C263.59 118.636 263.679 118.423 263.858 118.244C264.037 118.065 264.25 117.976 264.497 117.976ZM301.735 134.267H305.43V118.882C305.43 118.636 305.52 118.423 305.699 118.244C305.878 118.065 306.091 117.976 306.337 117.976H312.921C313.167 117.976 313.38 118.065 313.559 118.244C313.738 118.423 313.828 118.636 313.828 118.882V134.267H315.104C315.35 134.267 315.563 134.356 315.742 134.536C315.921 134.715 316.011 134.927 316.011 135.174V144.747C316.011 144.993 315.921 145.206 315.742 145.385C315.563 145.564 315.35 145.654 315.104 145.654H309.696C309.45 145.654 309.237 145.564 309.058 145.385C308.879 145.206 308.789 144.993 308.789 144.747V141.489H293.909C293.662 141.489 293.45 141.399 293.27 141.22C293.091 141.041 293.002 140.828 293.002 140.582V118.882C293.002 118.614 293.091 118.401 293.27 118.244C293.45 118.065 293.662 117.976 293.909 117.976H300.828C301.075 117.976 301.287 118.065 301.466 118.244C301.646 118.423 301.735 118.636 301.735 118.882V134.267Z" fill="white"/>
</svg>
