<svg width="20" height="18" viewBox="0 0 20 18" fill="none" xmlns="http://www.w3.org/2000/svg">
<path d="M10 18C9.71527 18 9.44077 17.8957 9.22684 17.7061C8.41888 16.9914 7.63992 16.3198 6.95267 15.7274L6.94916 15.7243C4.93423 13.9873 3.19427 12.4873 1.98364 11.0096C0.630341 9.35765 0 7.79138 0 6.08032C0 4.41788 0.563507 2.88418 1.58661 1.76153C2.62192 0.625613 4.04251 0 5.58716 0C6.74164 0 7.79892 0.369224 8.72955 1.09733C9.19922 1.46486 9.62494 1.91466 10 2.43932C10.3752 1.91466 10.8008 1.46486 11.2706 1.09733C12.2012 0.369224 13.2585 0 14.413 0C15.9575 0 17.3782 0.625613 18.4135 1.76153C19.4366 2.88418 20 4.41788 20 6.08032C20 7.79138 19.3698 9.35765 18.0165 11.0094C16.8059 12.4873 15.0661 13.9872 13.0515 15.724C12.363 16.3173 11.5828 16.99 10.773 17.7064C10.5592 17.8957 10.2846 18 10 18ZM5.58716 1.18516C4.37363 1.18516 3.25882 1.67509 2.44781 2.56481C1.62476 3.46796 1.17142 4.71641 1.17142 6.08032C1.17142 7.5194 1.70013 8.80644 2.88559 10.2534C4.03137 11.652 5.73563 13.1212 7.70889 14.8224L7.71255 14.8255C8.4024 15.4202 9.18442 16.0944 9.99832 16.8144C10.8171 16.0931 11.6003 15.4177 12.2916 14.8221C14.2647 13.1209 15.9688 11.652 17.1146 10.2534C18.2999 8.80644 18.8286 7.5194 18.8286 6.08032C18.8286 4.71641 18.3752 3.46796 17.5522 2.56481C16.7413 1.67509 15.6264 1.18516 14.413 1.18516C13.524 1.18516 12.7078 1.47103 11.9872 2.03475C11.3449 2.53734 10.8975 3.17268 10.6352 3.61723C10.5003 3.84583 10.2629 3.98228 10 3.98228C9.73709 3.98228 9.49966 3.84583 9.36478 3.61723C9.10263 3.17268 8.65524 2.53734 8.01285 2.03475C7.29218 1.47103 6.47598 1.18516 5.58716 1.18516Z" fill="#005AAB"/>
</svg>
