<svg width="18" height="10" viewBox="0 0 18 10" fill="none" xmlns="http://www.w3.org/2000/svg">
<path d="M14.9368 5.73429C14.6458 5.38429 14.729 5.22857 14.9368 4.91571C14.9405 4.91214 17.3428 1.75071 17.5904 0.678571L17.5919 0.677857C17.7149 0.287143 17.5919 0 16.9971 0H15.029C14.528 0 14.297 0.246429 14.1732 0.522143C14.1732 0.522143 13.1712 2.80643 11.7537 4.28714C11.2961 4.715 11.0846 4.85214 10.8349 4.85214C10.7119 4.85214 10.5206 4.715 10.5206 4.32429V0.677857C10.5206 0.209286 10.3804 0 9.9656 0H6.87099C6.55673 0 6.36997 0.218571 6.36997 0.422143C6.36997 0.866429 7.07875 0.968571 7.15225 2.21857V4.93071C7.15225 5.525 7.03899 5.63429 6.78774 5.63429C6.11871 5.63429 4.49491 3.34071 3.53262 0.715714C3.33837 0.206428 3.14861 0.000714234 2.64384 0.000714234H0.675023C0.113254 0.000714234 0 0.247143 0 0.522857C0 1.01 0.669023 3.43214 3.11111 6.63214C4.73866 8.81643 7.03074 10 9.11582 10C10.3691 10 10.5221 9.73714 10.5221 9.285C10.5221 7.19786 10.4089 7.00071 11.0366 7.00071C11.3276 7.00071 11.8287 7.13786 12.9987 8.19143C14.336 9.44071 14.5558 10 15.3043 10H17.2723C17.8334 10 18.1176 9.73714 17.9541 9.21857C17.5799 8.12786 15.0508 5.88429 14.9368 5.73429Z" fill="white"/>
</svg>
