<svg width="60" height="60" viewBox="0 0 60 60" fill="none" xmlns="http://www.w3.org/2000/svg">
<rect width="60" height="60" fill="#0B972A"/>
<path d="M32 29C31.4477 29 31 29.4477 31 30C31 30.5523 31.4477 31 32 31L32 29ZM33.7071 30.7071C34.0976 30.3166 34.0976 29.6834 33.7071 29.2929L27.3431 22.9289C26.9526 22.5384 26.3195 22.5384 25.9289 22.9289C25.5384 23.3195 25.5384 23.9526 25.9289 24.3431L31.5858 30L25.9289 35.6569C25.5384 36.0474 25.5384 36.6805 25.9289 37.0711C26.3195 37.4616 26.9526 37.4616 27.3431 37.0711L33.7071 30.7071ZM32 31L33 31L33 29L32 29L32 31Z" fill="white"/>
</svg>
