<svg width="24" height="24" viewBox="0 0 24 24" fill="none" xmlns="http://www.w3.org/2000/svg">
<path d="M12 21C11.7153 21 11.4408 20.8957 11.2268 20.7061C10.4189 19.9914 9.63992 19.3198 8.95267 18.7274L8.94916 18.7243C6.93423 16.9873 5.19427 15.4873 3.98364 14.0096C2.63034 12.3576 2 10.7914 2 9.08032C2 7.41788 2.56351 5.88418 3.58661 4.76153C4.62192 3.62561 6.04251 3 7.58716 3C8.74164 3 9.79892 3.36922 10.7296 4.09733C11.1992 4.46486 11.6249 4.91466 12 5.43932C12.3752 4.91466 12.8008 4.46486 13.2706 4.09733C14.2012 3.36922 15.2585 3 16.413 3C17.9575 3 19.3782 3.62561 20.4135 4.76153C21.4366 5.88418 22 7.41788 22 9.08032C22 10.7914 21.3698 12.3576 20.0165 14.0094C18.8059 15.4873 17.0661 16.9872 15.0515 18.724C14.363 19.3173 13.5828 19.99 12.773 20.7064C12.5592 20.8957 12.2846 21 12 21Z" fill="#005AAB"/>
</svg>
