<svg width="18" height="16" viewBox="0 0 18 16" fill="none" xmlns="http://www.w3.org/2000/svg">
<path d="M8.99857 3.6569L8.63704 3.27846C7.89364 2.50031 6.64627 1.49154 5.2555 1.49154C3.98584 1.49154 2.93792 1.93199 2.20863 2.65994C1.4794 3.38782 1.03857 4.43322 1.03857 5.69923C1.03857 7.08052 1.579 8.23042 2.4241 9.28409C3.27879 10.3497 4.42007 11.2875 5.59394 12.2494L5.59414 12.2496L5.62868 12.2779C6.71038 13.1652 7.87148 14.1176 8.76995 15.1813M8.99857 3.6569L8.64312 2.58133C7.84981 1.83989 6.6401 0.991538 5.2555 0.991538C2.4778 0.991538 0.538574 2.92769 0.538574 5.69923C0.538574 8.75308 2.94704 10.7269 5.27704 12.6362L5.29297 12.6492C6.38802 13.5475 7.51971 14.4758 8.38857 15.5046C8.5355 15.6777 8.75088 15.7777 8.97704 15.7777H9.02165C9.24857 15.7777 9.46319 15.6769 9.60934 15.5046M8.99857 3.6569L9.36011 3.27846C10.1031 2.50072 11.3537 1.49154 12.7455 1.49154C14.0147 1.49154 15.0625 1.93197 15.7917 2.65992C16.5208 3.3878 16.9617 4.43322 16.9617 5.69923C16.9617 7.08085 16.4209 8.23092 15.5755 9.2846C14.7205 10.3502 13.5791 11.2878 12.4056 12.2493C12.4056 12.2494 12.4056 12.2494 12.4055 12.2494L12.3992 12.2546C11.308 13.1483 10.1355 14.1085 9.22783 15.1814M8.99857 3.6569L12.7224 12.6362C11.6217 13.5377 10.484 14.4708 9.60934 15.5046M8.76995 15.1813C8.77016 15.1815 8.77037 15.1818 8.77058 15.182L8.38862 15.5046L8.76975 15.181C8.76982 15.1811 8.76989 15.1812 8.76995 15.1813ZM8.76995 15.1813C8.82237 15.2429 8.89855 15.2777 8.97704 15.2777H9.02165C9.09986 15.2777 9.17555 15.2429 9.22783 15.1814M9.22783 15.1814C9.22776 15.1815 9.22769 15.1816 9.22762 15.1817L9.60934 15.5046M9.22783 15.1814C9.2279 15.1814 9.22797 15.1813 9.22804 15.1812L9.60934 15.5046" stroke="white"/>
</svg>
