<svg width="18" height="17" viewBox="0 0 18 17" fill="none" xmlns="http://www.w3.org/2000/svg">
<path d="M9.80425 12.5H9.64506L9.51518 12.592L5.02608 15.7728C5.02606 15.7728 5.02604 15.7728 5.02601 15.7729C4.97616 15.8082 4.91758 15.8291 4.85665 15.8333C4.7957 15.8376 4.73475 15.825 4.68045 15.797C4.62616 15.7689 4.58062 15.7265 4.54881 15.6743C4.51703 15.6222 4.50018 15.5624 4.50008 15.5013C4.50008 15.5013 4.50008 15.5012 4.50008 15.5011L4.50008 13V12.5H4.00008H3.37508C2.78939 12.5 2.2277 12.2673 1.81355 11.8532C1.39941 11.4391 1.16675 10.8774 1.16675 10.2917V3.20833C1.16675 2.62265 1.39941 2.06095 1.81355 1.64681C2.2277 1.23266 2.7894 1 3.37508 1H14.6251C14.9151 1 15.2022 1.05712 15.4702 1.1681C15.7381 1.27908 15.9815 1.44174 16.1866 1.64681C16.3917 1.85187 16.5543 2.09531 16.6653 2.36324C16.7763 2.63117 16.8334 2.91833 16.8334 3.20833V10.2917C16.8334 10.5817 16.7763 10.8688 16.6653 11.1368C16.5543 11.4047 16.3917 11.6481 16.1866 11.8532C15.9815 12.0583 15.7381 12.2209 15.4702 12.3319C15.2022 12.4429 14.9151 12.5 14.6251 12.5H9.80425Z" stroke="white"/>
</svg>
