<svg width="40" height="40" viewBox="0 0 40 40" fill="none" xmlns="http://www.w3.org/2000/svg">
<rect width="40" height="40" rx="4" fill="#005AAB"/>
<path d="M16.0882 23.3335H16.0892C16.09 23.3335 16.0909 23.3333 16.0917 23.3333H27.7774C28.0651 23.3333 28.318 23.1359 28.3971 22.8498L30.9752 13.5165C31.0308 13.3153 30.9918 13.099 30.8701 12.9319C30.7483 12.7649 30.5578 12.6667 30.3555 12.6667H14.6017L14.141 10.522C14.0754 10.217 13.8139 10 13.5117 10H9.64453C9.28853 10 9 10.2984 9 10.6667C9 11.0349 9.28853 11.3333 9.64453 11.3333H12.9948C13.0763 11.7134 15.1996 21.5964 15.3218 22.1649C14.6368 22.4729 14.1563 23.1793 14.1563 24C14.1563 25.1028 15.0237 26 16.0899 26H27.7774C28.1334 26 28.4219 25.7016 28.4219 25.3333C28.4219 24.9651 28.1334 24.6667 27.7774 24.6667H16.0899C15.7345 24.6667 15.4453 24.3675 15.4453 24C15.4453 23.633 15.7335 23.3344 16.0882 23.3335ZM29.501 14L27.2911 22H16.6068L14.8881 14H29.501Z" fill="white"/>
<path d="M15 28C15 29.1028 15.8972 30 17 30C18.1028 30 19 29.1028 19 28C19 26.8972 18.1028 26 17 26C15.8972 26 15 26.8972 15 28ZM17 27.3333C17.3675 27.3333 17.6667 27.6325 17.6667 28C17.6667 28.3675 17.3675 28.6667 17 28.6667C16.6325 28.6667 16.3333 28.3675 16.3333 28C16.3333 27.6325 16.6325 27.3333 17 27.3333Z" fill="white"/>
<path d="M25 28C25 29.1028 25.8972 30 27 30C28.1028 30 29 29.1028 29 28C29 26.8972 28.1028 26 27 26C25.8972 26 25 26.8972 25 28ZM27 27.3333C27.3675 27.3333 27.6667 27.6325 27.6667 28C27.6667 28.3675 27.3675 28.6667 27 28.6667C26.6325 28.6667 26.3333 28.3675 26.3333 28C26.3333 27.6325 26.6325 27.3333 27 27.3333Z" fill="white"/>
</svg>
