<svg width="10" height="18" viewBox="0 0 10 18" fill="none" xmlns="http://www.w3.org/2000/svg">
<path d="M9.62352 0.0037452L7.22496 0C4.53025 0 2.78881 1.73871 2.78881 4.42982V6.47227H0.377152C0.168756 6.47227 0 6.63668 0 6.83949V9.79876C0 10.0016 0.168949 10.1658 0.377152 10.1658H2.78881V17.633C2.78881 17.8358 2.95756 18 3.16596 18H6.31248C6.52088 18 6.68963 17.8356 6.68963 17.633V10.1658H9.50942C9.71781 10.1658 9.88657 10.0016 9.88657 9.79876L9.88772 6.83949C9.88772 6.74211 9.84789 6.64886 9.77727 6.57994C9.70665 6.51103 9.61044 6.47227 9.51038 6.47227H6.68963V4.74086C6.68963 3.90868 6.89341 3.48622 8.00735 3.48622L9.62314 3.48566C9.83134 3.48566 10.0001 3.32124 10.0001 3.11863V0.370775C10.0001 0.168347 9.83154 0.00411972 9.62352 0.0037452Z" fill="white"/>
</svg>
