<svg width="18" height="13" viewBox="0 0 18 13" fill="none" xmlns="http://www.w3.org/2000/svg">
<path d="M17.6291 2.03419C17.4217 1.23876 16.8137 0.61173 16.0427 0.397545C14.6341 0 8.9998 0 8.9998 0C8.9998 0 3.36567 0 1.95711 0.382473C1.20092 0.596431 0.578102 1.23887 0.370679 2.03419C0 3.48702 0 6.5 0 6.5C0 6.5 0 9.52817 0.370679 10.9658C0.578321 11.7611 1.18609 12.3882 1.95722 12.6023C3.3805 13 9.00002 13 9.00002 13C9.00002 13 14.6341 13 16.0427 12.6175C16.8138 12.4035 17.4217 11.7764 17.6294 10.9811C17.9999 9.52817 17.9999 6.5153 17.9999 6.5153C17.9999 6.5153 18.0148 3.48702 17.6291 2.03419ZM7.20595 9.2835V3.7165L11.8912 6.5L7.20595 9.2835Z" fill="white"/>
</svg>
