<svg width="43" height="43" viewBox="0 0 43 43" fill="none" xmlns="http://www.w3.org/2000/svg">
<path d="M40.764 0H2.236C1.64319 0.000682836 1.07485 0.23648 0.655663 0.655663C0.23648 1.07485 0.000682836 1.64319 0 2.236V32.508C0.000682836 33.1008 0.23648 33.6692 0.655663 34.0883C1.07485 34.5075 1.64319 34.7433 2.236 34.744H17.4297L16.8444 39.4251C15.4154 39.9386 14.0479 40.6091 12.767 41.4245C12.6134 41.5269 12.4969 41.6759 12.4346 41.8497C12.3722 42.0234 12.3675 42.2126 12.421 42.3892C12.4745 42.5659 12.5833 42.7206 12.7316 42.8306C12.8798 42.9406 13.0594 43 13.244 43H29.756C29.9406 43 30.1202 42.9406 30.2684 42.8306C30.4167 42.7206 30.5255 42.5659 30.579 42.3892C30.6325 42.2126 30.6278 42.0234 30.5655 41.8497C30.5031 41.6759 30.3866 41.5269 30.233 41.4245C28.9521 40.6091 27.5846 39.9386 26.1556 39.4251L25.5703 34.744H40.764C41.3568 34.7433 41.9252 34.5075 42.3443 34.0883C42.7635 33.6692 42.9993 33.1008 43 32.508V2.236C42.9993 1.64319 42.7635 1.07485 42.3443 0.655663C41.9252 0.23648 41.3568 0.000682836 40.764 0ZM2.236 1.72H40.764C40.9008 1.72014 41.032 1.77454 41.1287 1.87128C41.2255 1.96802 41.2799 2.09919 41.28 2.236V26.144H1.72V2.236C1.72014 2.09919 1.77454 1.96802 1.87128 1.87128C1.96802 1.77454 2.09919 1.72014 2.236 1.72ZM17.372 41.28H16.8108C18.1776 40.7302 19.8473 40.248 21.5 40.248C23.1467 40.248 24.8158 40.7302 26.1835 41.28H17.372ZM24.3552 38.8858C22.4819 38.4087 20.519 38.4087 18.6457 38.8858L19.1631 34.744H23.8369L24.3552 38.8858ZM41.28 32.508C41.2799 32.6448 41.2255 32.776 41.1287 32.8727C41.032 32.9695 40.9008 33.0239 40.764 33.024H2.236C2.09919 33.0239 1.96802 32.9695 1.87128 32.8727C1.77454 32.776 1.72014 32.6448 1.72 32.508V27.864H41.28V32.508Z" fill="#005AAB"/>
<path d="M20.124 31.304H22.876C23.1041 31.304 23.3229 31.2134 23.4842 31.0521C23.6454 30.8908 23.736 30.6721 23.736 30.444C23.736 30.2159 23.6454 29.9972 23.4842 29.8359C23.3229 29.6746 23.1041 29.584 22.876 29.584H20.124C19.896 29.584 19.6772 29.6746 19.5159 29.8359C19.3546 29.9972 19.264 30.2159 19.264 30.444C19.264 30.6721 19.3546 30.8908 19.5159 31.0521C19.6772 31.2134 19.896 31.304 20.124 31.304Z" fill="#005AAB"/>
<path d="M8.42799 5.84805H10.5601L14.4921 17.644C14.5213 17.7317 14.5645 17.8141 14.62 17.8881C14.0803 17.8873 13.5585 18.0815 13.1506 18.4349C12.7428 18.7884 12.4763 19.2772 12.4002 19.8115C12.3241 20.3458 12.4435 20.8896 12.7366 21.3428C13.0296 21.796 13.4764 22.1282 13.9948 22.2781C14.5133 22.428 15.0684 22.3857 15.5581 22.1588C16.0478 21.932 16.4391 21.5359 16.6599 21.0434C16.8808 20.551 16.9164 19.9954 16.7601 19.4788C16.6038 18.9622 16.2662 18.5195 15.8095 18.2321H22.9872C22.971 18.402 22.962 18.574 22.962 18.7481C22.962 19.8196 23.2798 20.8672 23.8751 21.7581C24.4704 22.6491 25.3166 23.3436 26.3066 23.7536C27.2966 24.1637 28.386 24.271 29.437 24.062C30.488 23.8529 31.4534 23.3369 32.2111 22.5792C32.9688 21.8214 33.4848 20.8561 33.6939 19.8051C33.9029 18.7541 33.7956 17.6647 33.3856 16.6747C32.9755 15.6847 32.2811 14.8385 31.3901 14.2432C30.4991 13.6478 29.4516 13.3301 28.38 13.3301C28.2091 13.3301 28.0404 13.3387 27.8735 13.3545L29.1959 9.38807C29.239 9.25879 29.2507 9.12112 29.2302 8.9864C29.2097 8.85168 29.1574 8.72377 29.0777 8.61322C28.998 8.50266 28.8932 8.41262 28.7719 8.35053C28.6506 8.28843 28.5163 8.25605 28.38 8.25605H17.372C17.1439 8.25605 16.9252 8.34666 16.7639 8.50794C16.6026 8.66922 16.512 8.88797 16.512 9.11605C16.512 9.34414 16.6026 9.56289 16.7639 9.72417C16.9252 9.88545 17.1439 9.97606 17.372 9.97606H27.1867L26.3828 12.3874C26.3607 12.3857 26.3385 12.3841 26.316 12.3841H18.748C18.5199 12.3841 18.3012 12.4747 18.1399 12.6359C17.9786 12.7972 17.888 13.016 17.888 13.2441C17.888 13.4721 17.9786 13.6909 18.1399 13.8522C18.3012 14.0135 18.5199 14.1041 18.748 14.1041H25.5926C24.6509 14.672 23.903 15.5114 23.4469 16.5121H15.9279L11.9959 4.71612C11.9388 4.54488 11.8293 4.39593 11.6829 4.29039C11.5364 4.18484 11.3605 4.12805 11.18 4.12805H8.42799C8.19991 4.12805 7.98116 4.21866 7.81988 4.37994C7.6586 4.54122 7.56799 4.75997 7.56799 4.98805C7.56799 5.21614 7.6586 5.43488 7.81988 5.59616C7.98116 5.75745 8.19991 5.84805 8.42799 5.84805ZM14.62 20.6401C14.5179 20.6401 14.4182 20.6098 14.3333 20.5531C14.2485 20.4964 14.1823 20.4158 14.1433 20.3215C14.1042 20.2272 14.094 20.1235 14.1139 20.0234C14.1338 19.9233 14.183 19.8314 14.2551 19.7592C14.3273 19.687 14.4192 19.6379 14.5193 19.618C14.6194 19.5981 14.7232 19.6083 14.8175 19.6473C14.9117 19.6864 14.9923 19.7525 15.049 19.8374C15.1057 19.9222 15.136 20.022 15.136 20.1241C15.1359 20.2609 15.0814 20.392 14.9847 20.4888C14.888 20.5855 14.7568 20.6399 14.62 20.6401ZM32.078 18.7481C32.078 19.4795 31.8611 20.1944 31.4548 20.8026C31.0484 21.4107 30.4709 21.8847 29.7952 22.1646C29.1194 22.4445 28.3759 22.5177 27.6586 22.375C26.9412 22.2323 26.2823 21.8801 25.7651 21.3629C25.2479 20.8458 24.8957 20.1868 24.753 19.4695C24.6104 18.7522 24.6836 18.0086 24.9635 17.3329C25.2434 16.6572 25.7174 16.0796 26.3255 15.6733C26.9336 15.2669 27.6486 15.0501 28.38 15.0501C29.3604 15.0512 30.3004 15.4411 30.9936 16.1344C31.6869 16.8277 32.0769 17.7676 32.078 18.7481Z" fill="#005AAB"/>
<path d="M26.6194 19.5172L27.9954 20.2052C28.1829 20.2989 28.3981 20.3209 28.6007 20.2671C28.8033 20.2132 28.9792 20.0872 29.0955 19.9128L30.4715 17.8488C30.5955 17.659 30.6396 17.4279 30.5941 17.2058C30.5486 16.9837 30.4173 16.7885 30.2286 16.6628C30.04 16.537 29.8093 16.4908 29.5868 16.5342C29.3643 16.5777 29.1679 16.7072 29.0404 16.8947L28.0858 18.327L27.3892 17.9786C27.1855 17.8787 26.9505 17.8634 26.7355 17.936C26.5205 18.0086 26.3429 18.1632 26.2414 18.3662C26.1399 18.5691 26.1228 18.804 26.1937 19.0195C26.2646 19.2351 26.4179 19.4139 26.62 19.5169L26.6194 19.5172Z" fill="#005AAB"/>
</svg>
