<svg width="22" height="16" viewBox="0 0 22 16" fill="none" xmlns="http://www.w3.org/2000/svg">
<path d="M7.08818 13.3335H7.08918C7.09002 13.3335 7.09086 13.3333 7.0917 13.3333H18.7774C19.0651 13.3333 19.318 13.1359 19.3971 12.8498L21.9752 3.51649C22.0308 3.31528 21.9918 3.09896 21.8701 2.93194C21.7483 2.76493 21.5578 2.66667 21.3555 2.66667H5.60172L5.14098 0.522049C5.07536 0.217014 4.81385 0 4.51173 0H0.644532C0.288529 0 0 0.298438 0 0.666667C0 1.0349 0.288529 1.33333 0.644532 1.33333H3.99476C4.07633 1.71337 6.19959 11.5964 6.32179 12.1649C5.6368 12.4729 5.15626 13.1793 5.15626 14C5.15626 15.1028 6.02369 16 7.08986 16H18.7774C19.1334 16 19.4219 15.7016 19.4219 15.3333C19.4219 14.9651 19.1334 14.6667 18.7774 14.6667H7.08986C6.73452 14.6667 6.44532 14.3675 6.44532 14C6.44532 13.633 6.73352 13.3344 7.08818 13.3335ZM20.501 4L18.2911 12H7.60682L5.88807 4H20.501Z" fill="#005AAB"/>
</svg>
