<svg width="92" height="16" viewBox="0 0 92 16" fill="none" xmlns="http://www.w3.org/2000/svg">
<g clip-path="url(#clip0_7185_9)">
<path d="M22.9197 0.533707L16.3228 15.42H20.8757L21.8411 13.0806H28.8015L29.7669 15.42H34.3198L27.705 0.533707H22.9197ZM23.164 9.88582L24.8863 5.58205C25.0948 5.10151 25.2379 4.584 25.3272 4.07177C25.4166 4.584 25.5537 5.10151 25.7682 5.58205L27.4905 9.88582H23.164Z" fill="white"/>
<path d="M86.2254 7.67321L81.0409 0.533707H75.1471L80.5641 7.67321L74.7955 15.42H79.9682L83.3829 10.4297L86.7916 15.42H92L86.2254 7.67321Z" fill="white"/>
<path d="M59.6529 0.533707H53.0083V15.4358H57.442V10.7571H59.641C63.7887 10.7413 66.959 9.57426 66.959 5.64542C66.953 1.71658 63.8006 0.533707 59.6529 0.533707ZM59.8675 7.3458H57.4361V3.93447H59.8615C61.2142 3.93447 62.4121 4.29356 62.4121 5.63486C62.4121 6.97087 61.2202 7.3458 59.8675 7.3458Z" fill="white"/>
<path d="M86.3981 0.440506H91.535V4.99246H86.3981V0.440506Z" fill="#FF8800"/>
<path d="M10.9596 12.2569C10.5901 12.3361 10.2028 12.3678 9.8154 12.3678C7.89651 12.3678 4.8394 11.6655 4.8394 7.99013C4.8394 4.93261 7.40785 3.68636 10.1134 3.68636C11.7998 3.68636 13.4923 4.10882 14.7557 4.86924V1.14635C13.1049 0.539066 11.3469 0.211664 9.55319 0.211664C4.85727 0.206383 0.286499 2.41899 0.286499 7.96901C0.286499 13.3764 4.82152 15.7316 9.60683 15.7316C11.5257 15.7158 13.4029 15.3884 15.1788 14.7336V7.23499H10.9596V12.2569Z" fill="white"/>
<path d="M46.6915 10.0126C48.5389 9.35783 49.9096 8.01653 49.9096 5.53988C49.9096 1.61105 46.4293 0.523224 43.0147 0.523224H35.9291V15.4095H40.3807V10.5777H42.2996L46.3102 15.4253H51.3219L46.6915 10.0126ZM43.2113 7.37756H40.3807V3.93455H43.1934C44.4628 3.93455 45.3209 4.51015 45.3209 5.66662C45.3209 6.81781 44.4807 7.37756 43.2113 7.37756Z" fill="white"/>
<path d="M69.0269 15.42H73.4784V0.533707H69.0269V15.42Z" fill="white"/>
</g>
<defs>
<clipPath id="clip0_7185_9">
<rect width="92" height="16" fill="white"/>
</clipPath>
</defs>
</svg>
