<svg width="55" height="55" viewBox="0 0 55 55" fill="none" xmlns="http://www.w3.org/2000/svg">
<path d="M51.1498 24.8534L49.7255 19.1563C50.1149 19.0735 50.4071 18.7281 50.4071 18.3142V17.3956C50.4071 15.4012 48.7845 13.7787 46.7902 13.7787H40.3028V11.884C40.3028 10.9026 39.5044 10.1042 38.523 10.1042H5.45402C4.47262 10.1042 3.67426 10.9026 3.67426 11.884V27.4999C3.67426 27.9755 4.05979 28.3611 4.53546 28.3611C5.01102 28.3611 5.39666 27.9756 5.39666 27.4999V11.884C5.39666 11.8523 5.42233 11.8267 5.45402 11.8267H38.5229C38.5546 11.8267 38.5802 11.8523 38.5802 11.884V27.5001C38.5802 27.9757 38.9658 28.3614 39.4414 28.3614C39.917 28.3614 40.3026 27.9758 40.3026 27.5001V26.5239H50.4614C50.4623 26.5239 50.4629 26.5241 50.4637 26.5241C50.4645 26.5241 50.4653 26.524 50.466 26.524C51.7161 26.5249 52.7775 27.3454 53.1421 28.476H50.4643C49.9888 28.476 49.6031 28.8615 49.6031 29.3372V31.1743C49.6031 32.6622 50.8136 33.8726 52.3015 33.8726H53.2775V37.6617H51.0257C50.286 35.5258 48.2556 33.9874 45.8714 33.9874C43.4872 33.9874 41.4567 35.5258 40.7171 37.6617H40.3024V31.1742C40.3024 30.6986 39.9169 30.313 39.4412 30.313C38.9657 30.313 38.58 30.6985 38.58 31.1742V37.6615H20.7128C19.9731 35.5256 17.9427 33.9871 15.5584 33.9871C13.1742 33.9871 11.1437 35.5256 10.4041 37.6615H5.45402C5.42233 37.6615 5.39666 37.6358 5.39666 37.6041V35.7095H9.12839C9.60394 35.7095 9.98959 35.324 9.98959 34.8483C9.98959 34.3727 9.60405 33.9871 9.12839 33.9871H0.861201C0.385645 33.9871 0 34.3727 0 34.8483C0 35.324 0.385537 35.7095 0.861201 35.7095H3.67437V37.6041C3.67437 38.5856 4.47272 39.3839 5.45413 39.3839H10.1059C10.1057 39.403 10.1044 39.422 10.1044 39.4413C10.1044 42.4487 12.5512 44.8953 15.5584 44.8953C18.5657 44.8953 21.0125 42.4487 21.0125 39.4413C21.0125 39.4219 21.0112 39.403 21.011 39.3839H40.4189C40.4187 39.403 40.4174 39.422 40.4174 39.4413C40.4174 42.4487 42.8641 44.8953 45.8714 44.8953C48.8787 44.8953 51.3254 42.4487 51.3254 39.4413C51.3254 39.4219 51.3241 39.403 51.3239 39.3839H54.1387C54.6142 39.3839 54.9999 38.9984 54.9999 38.5227V29.337C55 27.0691 53.3267 25.1848 51.1498 24.8534ZM40.3028 15.501H46.7902C47.8349 15.501 48.6848 16.3509 48.6848 17.3956V17.453H40.3028V15.501ZM40.3028 24.8016V19.1753H47.9549L49.3615 24.8016H40.3028ZM15.5584 43.1732C13.5008 43.1732 11.8267 41.4993 11.8267 39.4415C11.8267 37.3837 13.5008 35.7098 15.5584 35.7098C17.6161 35.7098 19.2902 37.3837 19.2902 39.4415C19.2902 41.4993 17.6161 43.1732 15.5584 43.1732ZM45.8716 43.1732C43.8139 43.1732 42.1399 41.4993 42.1399 39.4415C42.1399 37.3837 43.8139 35.7098 45.8716 35.7098C47.9293 35.7098 49.6033 37.3837 49.6033 39.4415C49.6033 41.4993 47.9293 43.1732 45.8716 43.1732ZM53.2777 32.1502H52.3017C51.7635 32.1502 51.3256 31.7124 51.3256 31.1742V30.1982H53.2776V32.1502H53.2777Z" fill="#005AAB"/>
<path d="M15.5585 37.6619C14.577 37.6619 13.7787 38.4602 13.7787 39.4416C13.7787 40.423 14.577 41.2214 15.5585 41.2214C16.5399 41.2214 17.3382 40.423 17.3382 39.4416C17.3382 38.4602 16.5399 37.6619 15.5585 37.6619Z" fill="#005AAB"/>
<path d="M45.8716 37.6619C44.8902 37.6619 44.0918 38.4602 44.0918 39.4416C44.0918 40.423 44.8902 41.2214 45.8716 41.2214C46.853 41.2214 47.6513 40.423 47.6513 39.4416C47.6513 38.4602 46.853 37.6619 45.8716 37.6619Z" fill="#005AAB"/>
<path d="M35.7672 33.9874H22.9071C22.4315 33.9874 22.0459 34.373 22.0459 34.8486C22.0459 35.3243 22.4314 35.7098 22.9071 35.7098H35.7672C36.2428 35.7098 36.6284 35.3243 36.6284 34.8486C36.6284 34.373 36.2429 33.9874 35.7672 33.9874Z" fill="#005AAB"/>
<path d="M13.7213 30.3131H2.69836C2.2228 30.3131 1.83716 30.6986 1.83716 31.1743C1.83716 31.65 2.2227 32.0355 2.69836 32.0355H13.7213C14.1969 32.0355 14.5825 31.65 14.5825 31.1743C14.5825 30.6986 14.1969 30.3131 13.7213 30.3131Z" fill="#005AAB"/>
<path d="M29.9461 18.6237C29.6098 18.2875 29.0645 18.2875 28.7282 18.6238L21.0699 26.2821L17.0859 22.2981C16.7496 21.9618 16.2043 21.9618 15.8681 22.2981C15.5318 22.6344 15.5318 23.1796 15.8681 23.5159L20.461 28.1089C20.6291 28.2771 20.8496 28.3611 21.0699 28.3611C21.2902 28.3611 21.5108 28.2771 21.6788 28.1089L29.946 19.8417C30.2823 19.5052 30.2823 18.9601 29.9461 18.6237Z" fill="#005AAB"/>
</svg>
