<svg width="55" height="55" viewBox="0 0 55 55" fill="none" xmlns="http://www.w3.org/2000/svg">
<path d="M23 43C21.8975 43 21 43.8975 21 45C21 46.1025 21.8975 47 23 47C24.1025 47 25 46.1025 25 45C25 43.8975 24.1025 43 23 43ZM23 45.6667C22.6328 45.6667 22.3333 45.3678 22.3333 45C22.3333 44.6322 22.6328 44.3333 23 44.3333C23.3672 44.3333 23.6667 44.6322 23.6667 45C23.6667 45.3678 23.3672 45.6667 23 45.6667Z" fill="#005AAB"/>
<path d="M20 8H26V9H20V8Z" fill="#005AAB"/>
<path d="M45.26 13.7097H37.12V8.62903C37.12 6.6281 35.4601 5 33.42 5H12.7C10.6599 5 9 6.6281 9 8.62903V46.371C9 48.3719 10.6599 50 12.7 50H33.42C35.4601 50 37.12 48.3719 37.12 46.371V28.2258H45.26C45.6683 28.2258 46 27.9015 46 27.5V14.4355C46 14.034 45.6683 13.7097 45.26 13.7097ZM34.9 22.1894L26.5403 15.1613H43.2597L34.9 22.1894ZM25.28 16.0133L30.6244 20.506L25.28 25.7479V16.0133ZM32.68 13.7097H24.54C24.1317 13.7097 23.8 14.034 23.8 14.4355V27.5C23.8 27.9015 24.1317 28.2258 24.54 28.2258H32.68V39.8387H13.44V12.2581H32.68V13.7097ZM26.3264 26.7742L31.7514 21.4533L34.4184 23.6952C34.5575 23.8128 34.7284 23.871 34.9 23.871C35.0716 23.871 35.2425 23.8128 35.3817 23.6959L38.0486 21.454L43.4736 26.7742H26.3264ZM39.1756 20.506L44.52 16.0133V25.7479L39.1756 20.506ZM35.64 46.371C35.64 47.5713 34.6438 48.5484 33.42 48.5484H12.7C11.4762 48.5484 10.48 47.5713 10.48 46.371V8.62903C10.48 7.42869 11.4762 6.45161 12.7 6.45161H33.42C34.6438 6.45161 35.64 7.42869 35.64 8.62903V13.7097H34.16V11.5323C34.16 11.1307 33.8283 10.8065 33.42 10.8065H12.7C12.2917 10.8065 11.96 11.1307 11.96 11.5323V40.5645C11.96 40.966 12.2917 41.2903 12.7 41.2903H33.42C33.8283 41.2903 34.16 40.966 34.16 40.5645V28.2258H35.64V46.371Z" fill="#005AAB"/>
<path d="M19.5 38H22.5C24.9818 38 27 36.2061 27 34V30.6667C27 30.2979 26.6638 30 26.25 30H19.5C17.0182 30 15 31.7939 15 34C15 36.2061 17.0182 38 19.5 38ZM19.5 31.3333H25.5V34C25.5 35.4707 24.1545 36.6667 22.5 36.6667H19.5C17.8455 36.6667 16.5 35.4707 16.5 34C16.5 32.5293 17.8455 31.3333 19.5 31.3333Z" fill="#005AAB"/>
<path d="M18 33H20V35H18V33Z" fill="#005AAB"/>
<path d="M21 33H22V35H21V33Z" fill="#005AAB"/>
</svg>
