<svg width="24" height="24" viewBox="0 0 24 24" fill="none" xmlns="http://www.w3.org/2000/svg">
<path d="M20.7796 19.7216L16.4522 15.3943C17.5249 14.0865 18.1714 12.4114 18.1714 10.5857C18.1714 6.39796 14.7735 3 10.5857 3C6.39429 3 3 6.39796 3 10.5857C3 14.7735 6.39429 18.1714 10.5857 18.1714C12.4114 18.1714 14.0829 17.5286 15.3906 16.4559L19.718 20.7796C20.0118 21.0735 20.4857 21.0735 20.7796 20.7796C21.0735 20.4894 21.0735 20.0118 20.7796 19.7216ZM10.5857 16.6616C7.23184 16.6616 4.50612 13.9359 4.50612 10.5857C4.50612 7.23551 7.23184 4.50612 10.5857 4.50612C13.9359 4.50612 16.6653 7.23551 16.6653 10.5857C16.6653 13.9359 13.9359 16.6616 10.5857 16.6616Z" fill="#005AAB"/>
</svg>
