<svg width="20" height="20" viewBox="0 0 20 20" fill="none" xmlns="http://www.w3.org/2000/svg">
<path d="M10.8042 14.5H10.6451L10.5152 14.592L6.02608 17.7728C6.02606 17.7728 6.02604 17.7728 6.02601 17.7729C5.97616 17.8082 5.91758 17.8291 5.85665 17.8333C5.7957 17.8376 5.73475 17.825 5.68045 17.797C5.62616 17.7689 5.58062 17.7265 5.54881 17.6743C5.51703 17.6222 5.50018 17.5624 5.50008 17.5013C5.50008 17.5013 5.50008 17.5012 5.50008 17.5011L5.50008 15V14.5H5.00008H4.37508C3.78939 14.5 3.2277 14.2673 2.81355 13.8532C2.39941 13.4391 2.16675 12.8774 2.16675 12.2917V5.20833C2.16675 4.62265 2.39941 4.06095 2.81355 3.64681C3.2277 3.23266 3.7894 3 4.37508 3H15.6251C15.9151 3 16.2022 3.05712 16.4702 3.1681C16.7381 3.27908 16.9815 3.44174 17.1866 3.64681C17.3917 3.85187 17.5543 4.09531 17.6653 4.36324C17.7763 4.63117 17.8334 4.91833 17.8334 5.20833V12.2917C17.8334 12.5817 17.7763 12.8688 17.6653 13.1368C17.5543 13.4047 17.3917 13.6481 17.1866 13.8532C16.9815 14.0583 16.7381 14.2209 16.4702 14.3319C16.2022 14.4429 15.9151 14.5 15.6251 14.5H10.8042Z" stroke="white"/>
</svg>
