<svg width="20" height="20" viewBox="0 0 20 20" fill="none" xmlns="http://www.w3.org/2000/svg">
<path d="M9.99857 5.6569L9.63704 5.27846C8.89364 4.50031 7.64627 3.49154 6.2555 3.49154C4.98584 3.49154 3.93792 3.93199 3.20863 4.65994C2.4794 5.38782 2.03857 6.43322 2.03857 7.69923C2.03857 9.08052 2.579 10.2304 3.4241 11.2841C4.27879 12.3497 5.42007 13.2875 6.59394 14.2494L6.59414 14.2496L6.62868 14.2779C7.71038 15.1652 8.87148 16.1176 9.76995 17.1813M9.99857 5.6569L9.64312 4.58133C8.84981 3.83989 7.6401 2.99154 6.2555 2.99154C3.4778 2.99154 1.53857 4.92769 1.53857 7.69923C1.53857 10.7531 3.94704 12.7269 6.27704 14.6362L6.29297 14.6492C7.38802 15.5475 8.51971 16.4758 9.38857 17.5046C9.5355 17.6777 9.75088 17.7777 9.97704 17.7777H10.0217C10.2486 17.7777 10.4632 17.6769 10.6093 17.5046M9.99857 5.6569L10.3601 5.27846C11.1031 4.50072 12.3537 3.49154 13.7455 3.49154C15.0147 3.49154 16.0625 3.93197 16.7917 4.65992C17.5208 5.3878 17.9617 6.43322 17.9617 7.69923C17.9617 9.08085 17.4209 10.2309 16.5755 11.2846C15.7205 12.3502 14.5791 13.2878 13.4056 14.2493C13.4056 14.2494 13.4056 14.2494 13.4055 14.2494L13.3992 14.2546C12.308 15.1483 11.1355 16.1085 10.2278 17.1814M9.99857 5.6569L13.7224 14.6362C12.6217 15.5377 11.484 16.4708 10.6093 17.5046M9.76995 17.1813C9.77016 17.1815 9.77037 17.1818 9.77058 17.182L9.38862 17.5046L9.76975 17.181C9.76982 17.1811 9.76989 17.1812 9.76995 17.1813ZM9.76995 17.1813C9.82237 17.2429 9.89855 17.2777 9.97704 17.2777H10.0217C10.0999 17.2777 10.1756 17.2429 10.2278 17.1814M10.2278 17.1814C10.2278 17.1815 10.2277 17.1816 10.2276 17.1817L10.6093 17.5046M10.2278 17.1814C10.2279 17.1814 10.228 17.1813 10.228 17.1812L10.6093 17.5046" stroke="white"/>
</svg>
