<svg width="60" height="60" viewBox="0 0 60 60" fill="none" xmlns="http://www.w3.org/2000/svg">
<rect x="0.5" y="0.5" width="59" height="59" rx="7.5" stroke="white"/>
<path d="M34.6235 21.0037L32.225 21C29.5302 21 27.7888 22.7387 27.7888 25.4298V27.4723H25.3772C25.1688 27.4723 25 27.6367 25 27.8395V30.7988C25 31.0016 25.1689 31.1658 25.3772 31.1658H27.7888V38.633C27.7888 38.8358 27.9576 39 28.166 39H31.3125C31.5209 39 31.6896 38.8356 31.6896 38.633V31.1658H34.5094C34.7178 31.1658 34.8866 31.0016 34.8866 30.7988L34.8877 27.8395C34.8877 27.7421 34.8479 27.6489 34.7773 27.5799C34.7067 27.511 34.6104 27.4723 34.5104 27.4723H31.6896V25.7409C31.6896 24.9087 31.8934 24.4862 33.0074 24.4862L34.6231 24.4857C34.8313 24.4857 35.0001 24.3212 35.0001 24.1186V21.3708C35.0001 21.1683 34.8315 21.0041 34.6235 21.0037Z" fill="white"/>
</svg>
