<svg width="220" height="19" viewBox="0 0 220 19" fill="none" xmlns="http://www.w3.org/2000/svg">
<g clip-path="url(#clip0_7477_8)">
<path d="M150.92 2.53371L144.323 17.42H148.876L149.841 15.0806H156.802L157.767 17.42H162.32L155.705 2.53371H150.92ZM151.164 11.8858L152.886 7.58205C153.095 7.10151 153.238 6.584 153.327 6.07177C153.417 6.584 153.554 7.10151 153.768 7.58205L155.49 11.8858H151.164Z" fill="white"/>
<path d="M214.225 9.67321L209.041 2.53371H203.147L208.564 9.67321L202.796 17.42H207.968L211.383 12.4297L214.792 17.42H220L214.225 9.67321Z" fill="white"/>
<path d="M187.653 2.53371H181.008V17.4358H185.442V12.7571H187.641C191.789 12.7413 194.959 11.5743 194.959 7.64542C194.953 3.71658 191.801 2.53371 187.653 2.53371ZM187.867 9.3458H185.436V5.93447H187.861C189.214 5.93447 190.412 6.29356 190.412 7.63486C190.412 8.97087 189.22 9.3458 187.867 9.3458Z" fill="white"/>
<path d="M214.398 2.44051H219.535V6.99246H214.398V2.44051Z" fill="#FF8800"/>
<path d="M138.96 14.2569C138.59 14.3361 138.203 14.3678 137.815 14.3678C135.897 14.3678 132.839 13.6655 132.839 9.99013C132.839 6.93261 135.408 5.68636 138.113 5.68636C139.8 5.68636 141.492 6.10882 142.756 6.86924V3.14635C141.105 2.53907 139.347 2.21166 137.553 2.21166C132.857 2.20638 128.286 4.41899 128.286 9.96901C128.286 15.3764 132.822 17.7316 137.607 17.7316C139.526 17.7158 141.403 17.3884 143.179 16.7336V9.23499H138.96V14.2569Z" fill="white"/>
<path d="M174.692 12.0126C176.539 11.3578 177.91 10.0165 177.91 7.53988C177.91 3.61105 174.429 2.52322 171.015 2.52322H163.929V17.4095H168.381V12.5777H170.3L174.31 17.4253H179.322L174.692 12.0126ZM171.211 9.37756H168.381V5.93455H171.193C172.463 5.93455 173.321 6.51015 173.321 7.66662C173.321 8.81781 172.481 9.37756 171.211 9.37756Z" fill="white"/>
<path d="M197.027 17.42H201.478V2.53371H197.027V17.42Z" fill="white"/>
</g>
<path d="M7.71094 7.91797C7.71094 8.92969 7.36458 9.70898 6.67188 10.2559C5.98372 10.7982 4.99707 11.0693 3.71191 11.0693H2.53613V15H1.37402V5.00586H3.96484C6.46224 5.00586 7.71094 5.97656 7.71094 7.91797ZM2.53613 10.0713H3.58203C4.61198 10.0713 5.3571 9.90495 5.81738 9.57227C6.27767 9.23958 6.50781 8.70638 6.50781 7.97266C6.50781 7.31185 6.29134 6.81966 5.8584 6.49609C5.42546 6.17253 4.75098 6.01074 3.83496 6.01074H2.53613V10.0713ZM14.2461 15L14.0205 13.9336H13.9658C13.5921 14.403 13.2184 14.722 12.8447 14.8906C12.4756 15.0547 12.013 15.1367 11.457 15.1367C10.7142 15.1367 10.1309 14.9453 9.70703 14.5625C9.28776 14.1797 9.07812 13.6351 9.07812 12.9287C9.07812 11.4157 10.2881 10.6227 12.708 10.5498L13.9795 10.5088V10.0439C13.9795 9.45605 13.8519 9.02311 13.5967 8.74512C13.346 8.46257 12.9427 8.32129 12.3867 8.32129C11.7624 8.32129 11.056 8.5127 10.2676 8.89551L9.91895 8.02734C10.2881 7.82682 10.6914 7.6696 11.1289 7.55566C11.571 7.44173 12.013 7.38477 12.4551 7.38477C13.3483 7.38477 14.0091 7.58301 14.4375 7.97949C14.8704 8.37598 15.0869 9.01172 15.0869 9.88672V15H14.2461ZM11.6826 14.2002C12.389 14.2002 12.9427 14.0065 13.3438 13.6191C13.7493 13.2318 13.9521 12.6895 13.9521 11.9922V11.3154L12.8174 11.3633C11.915 11.3952 11.2633 11.5365 10.8623 11.7871C10.4658 12.0332 10.2676 12.4183 10.2676 12.9424C10.2676 13.3525 10.3906 13.6647 10.6367 13.8789C10.8874 14.0931 11.236 14.2002 11.6826 14.2002ZM18.8604 10.6182C20.2777 10.6182 20.9863 10.2262 20.9863 9.44238C20.9863 8.7041 20.4121 8.33496 19.2637 8.33496C18.9128 8.33496 18.5938 8.36686 18.3066 8.43066C18.0195 8.49447 17.6436 8.62207 17.1787 8.81348L16.7754 7.89062C17.5501 7.54427 18.3955 7.37109 19.3115 7.37109C20.1729 7.37109 20.8519 7.54883 21.3486 7.9043C21.8454 8.25521 22.0938 8.736 22.0938 9.34668C22.0938 10.1852 21.6266 10.7344 20.6924 10.9941V11.0488C21.2666 11.2174 21.6859 11.459 21.9502 11.7734C22.2145 12.0833 22.3467 12.473 22.3467 12.9424C22.3467 13.6351 22.0664 14.1751 21.5059 14.5625C20.9499 14.9453 20.1797 15.1367 19.1953 15.1367C18.1152 15.1367 17.2812 14.9749 16.6934 14.6514V13.6123C17.5273 14.0042 18.3704 14.2002 19.2227 14.2002C19.8789 14.2002 20.3734 14.0885 20.7061 13.8652C21.0433 13.6374 21.2119 13.3115 21.2119 12.8877C21.2119 12.0173 20.5033 11.582 19.0859 11.582H18.0469V10.6182H18.8604ZM27.6855 15.1367C27.1979 15.1367 26.7513 15.0479 26.3457 14.8701C25.9447 14.6878 25.6074 14.4098 25.334 14.0361H25.252C25.3066 14.4736 25.334 14.8883 25.334 15.2803V18.3633H24.1992V7.50781H25.1221L25.2793 8.5332H25.334C25.6257 8.12305 25.9652 7.82682 26.3525 7.64453C26.7399 7.46224 27.1842 7.37109 27.6855 7.37109C28.679 7.37109 29.4447 7.71061 29.9824 8.38965C30.5247 9.06868 30.7959 10.0212 30.7959 11.2471C30.7959 12.4775 30.5202 13.4346 29.9688 14.1182C29.4219 14.7972 28.6608 15.1367 27.6855 15.1367ZM27.5215 8.33496C26.7559 8.33496 26.2021 8.54688 25.8604 8.9707C25.5186 9.39453 25.3431 10.069 25.334 10.9941V11.2471C25.334 12.2998 25.5094 13.054 25.8604 13.5098C26.2113 13.9609 26.7741 14.1865 27.5488 14.1865C28.196 14.1865 28.7018 13.9245 29.0664 13.4004C29.4355 12.8763 29.6201 12.154 29.6201 11.2334C29.6201 10.2992 29.4355 9.58366 29.0664 9.08691C28.7018 8.58561 28.1868 8.33496 27.5215 8.33496ZM37.3926 15L37.167 13.9336H37.1123C36.7386 14.403 36.3649 14.722 35.9912 14.8906C35.6221 15.0547 35.1595 15.1367 34.6035 15.1367C33.8607 15.1367 33.2773 14.9453 32.8535 14.5625C32.4342 14.1797 32.2246 13.6351 32.2246 12.9287C32.2246 11.4157 33.4346 10.6227 35.8545 10.5498L37.126 10.5088V10.0439C37.126 9.45605 36.9984 9.02311 36.7432 8.74512C36.4925 8.46257 36.0892 8.32129 35.5332 8.32129C34.9089 8.32129 34.2025 8.5127 33.4141 8.89551L33.0654 8.02734C33.4346 7.82682 33.8379 7.6696 34.2754 7.55566C34.7174 7.44173 35.1595 7.38477 35.6016 7.38477C36.4948 7.38477 37.1556 7.58301 37.584 7.97949C38.0169 8.37598 38.2334 9.01172 38.2334 9.88672V15H37.3926ZM34.8291 14.2002C35.5355 14.2002 36.0892 14.0065 36.4902 13.6191C36.8958 13.2318 37.0986 12.6895 37.0986 11.9922V11.3154L35.9639 11.3633C35.0615 11.3952 34.4098 11.5365 34.0088 11.7871C33.6123 12.0332 33.4141 12.4183 33.4141 12.9424C33.4141 13.3525 33.5371 13.6647 33.7832 13.8789C34.0339 14.0931 34.3825 14.2002 34.8291 14.2002ZM40.1885 10.5088C40.1885 8.86816 40.43 7.58984 40.9131 6.67383C41.3962 5.75326 42.1618 5.17904 43.21 4.95117C44.5133 4.67318 45.6618 4.44759 46.6553 4.27441L46.8672 5.27246C45.2858 5.53678 44.1556 5.74642 43.4766 5.90137C42.8158 6.05176 42.319 6.40723 41.9863 6.96777C41.6582 7.52832 41.4782 8.29167 41.4463 9.25781H41.5283C41.8109 8.875 42.1755 8.57422 42.6221 8.35547C43.0687 8.13672 43.5358 8.02734 44.0234 8.02734C44.944 8.02734 45.6618 8.32585 46.1768 8.92285C46.6917 9.51986 46.9492 10.347 46.9492 11.4043C46.9492 12.5755 46.6507 13.4915 46.0537 14.1523C45.4567 14.8086 44.625 15.1367 43.5586 15.1367C42.5059 15.1367 41.681 14.7334 41.084 13.9268C40.487 13.1201 40.1885 11.9808 40.1885 10.5088ZM43.6611 14.1865C45.0511 14.1865 45.7461 13.3001 45.7461 11.5273C45.7461 9.83659 45.1149 8.99121 43.8525 8.99121C43.5062 8.99121 43.1712 9.06413 42.8477 9.20996C42.5286 9.35124 42.2347 9.54036 41.9658 9.77734C41.7015 10.0143 41.4964 10.2581 41.3506 10.5088C41.3506 11.7074 41.5397 12.6211 41.918 13.25C42.2962 13.8743 42.8773 14.1865 43.6611 14.1865ZM55.3984 11.2471C55.3984 12.4684 55.0908 13.4232 54.4756 14.1113C53.8604 14.7949 53.0104 15.1367 51.9258 15.1367C51.2559 15.1367 50.6611 14.9795 50.1416 14.665C49.6221 14.3506 49.221 13.8994 48.9385 13.3115C48.6559 12.7236 48.5146 12.0355 48.5146 11.2471C48.5146 10.0257 48.82 9.07552 49.4307 8.39648C50.0413 7.71289 50.889 7.37109 51.9736 7.37109C53.0218 7.37109 53.8535 7.71973 54.4688 8.41699C55.0885 9.11426 55.3984 10.0576 55.3984 11.2471ZM49.6904 11.2471C49.6904 12.2041 49.8818 12.9333 50.2646 13.4346C50.6475 13.9359 51.2103 14.1865 51.9531 14.1865C52.696 14.1865 53.2588 13.9382 53.6416 13.4414C54.029 12.9401 54.2227 12.2087 54.2227 11.2471C54.2227 10.2946 54.029 9.57227 53.6416 9.08008C53.2588 8.58333 52.6914 8.33496 51.9395 8.33496C51.1966 8.33496 50.6361 8.57878 50.2578 9.06641C49.8796 9.55404 49.6904 10.2809 49.6904 11.2471ZM62.4463 8.47852H60.0127V15H58.8779V8.47852H56.4717V7.50781H62.4463V8.47852ZM68.2979 7.50781H69.542L66.3086 11.124L69.8086 15H68.4824L65.0645 11.2061V15H63.9297V7.50781H65.0645V11.1514L68.2979 7.50781ZM75.8105 15L75.585 13.9336H75.5303C75.1566 14.403 74.7829 14.722 74.4092 14.8906C74.04 15.0547 73.5775 15.1367 73.0215 15.1367C72.2786 15.1367 71.6953 14.9453 71.2715 14.5625C70.8522 14.1797 70.6426 13.6351 70.6426 12.9287C70.6426 11.4157 71.8525 10.6227 74.2725 10.5498L75.5439 10.5088V10.0439C75.5439 9.45605 75.4163 9.02311 75.1611 8.74512C74.9105 8.46257 74.5072 8.32129 73.9512 8.32129C73.3268 8.32129 72.6204 8.5127 71.832 8.89551L71.4834 8.02734C71.8525 7.82682 72.2559 7.6696 72.6934 7.55566C73.1354 7.44173 73.5775 7.38477 74.0195 7.38477C74.9128 7.38477 75.5736 7.58301 76.002 7.97949C76.4349 8.37598 76.6514 9.01172 76.6514 9.88672V15H75.8105ZM73.2471 14.2002C73.9535 14.2002 74.5072 14.0065 74.9082 13.6191C75.3138 13.2318 75.5166 12.6895 75.5166 11.9922V11.3154L74.3818 11.3633C73.4795 11.3952 72.8278 11.5365 72.4268 11.7871C72.0303 12.0332 71.832 12.4183 71.832 12.9424C71.832 13.3525 71.9551 13.6647 72.2012 13.8789C72.4518 14.0931 72.8005 14.2002 73.2471 14.2002ZM85.627 15.1367C84.5423 15.1367 83.7015 14.804 83.1045 14.1387C82.512 13.4688 82.2158 12.5231 82.2158 11.3018C82.2158 10.0485 82.5166 9.08008 83.1182 8.39648C83.7243 7.71289 84.5856 7.37109 85.7021 7.37109C86.0622 7.37109 86.4222 7.40983 86.7822 7.4873C87.1423 7.56478 87.4248 7.65592 87.6299 7.76074L87.2812 8.72461C87.0306 8.62435 86.7572 8.54232 86.4609 8.47852C86.1647 8.41016 85.9027 8.37598 85.6748 8.37598C84.1527 8.37598 83.3916 9.34668 83.3916 11.2881C83.3916 12.2087 83.5762 12.915 83.9453 13.4072C84.319 13.8994 84.8704 14.1455 85.5996 14.1455C86.224 14.1455 86.8643 14.0111 87.5205 13.7422V14.7471C87.0192 15.0068 86.388 15.1367 85.627 15.1367ZM93.9121 15L93.6865 13.9336H93.6318C93.2581 14.403 92.8844 14.722 92.5107 14.8906C92.1416 15.0547 91.679 15.1367 91.123 15.1367C90.3802 15.1367 89.7969 14.9453 89.373 14.5625C88.9538 14.1797 88.7441 13.6351 88.7441 12.9287C88.7441 11.4157 89.9541 10.6227 92.374 10.5498L93.6455 10.5088V10.0439C93.6455 9.45605 93.5179 9.02311 93.2627 8.74512C93.012 8.46257 92.6087 8.32129 92.0527 8.32129C91.4284 8.32129 90.722 8.5127 89.9336 8.89551L89.585 8.02734C89.9541 7.82682 90.3574 7.6696 90.7949 7.55566C91.237 7.44173 91.679 7.38477 92.1211 7.38477C93.0143 7.38477 93.6751 7.58301 94.1035 7.97949C94.5365 8.37598 94.7529 9.01172 94.7529 9.88672V15H93.9121ZM91.3486 14.2002C92.055 14.2002 92.6087 14.0065 93.0098 13.6191C93.4154 13.2318 93.6182 12.6895 93.6182 11.9922V11.3154L92.4834 11.3633C91.5811 11.3952 90.9294 11.5365 90.5283 11.7871C90.1318 12.0332 89.9336 12.4183 89.9336 12.9424C89.9336 13.3525 90.0566 13.6647 90.3027 13.8789C90.5534 14.0931 90.902 14.2002 91.3486 14.2002ZM98.1641 7.50781V12.2588L98.1162 13.5029L98.0957 13.8926L102.149 7.50781H103.564V15H102.505V10.4199L102.525 9.51758L102.56 8.62891L98.5127 15H97.0977V7.50781H98.1641ZM100.304 6.5166C99.4606 6.5166 98.8454 6.35482 98.458 6.03125C98.0706 5.70312 97.8542 5.16536 97.8086 4.41797H98.875C98.916 4.89193 99.0391 5.22233 99.2441 5.40918C99.4538 5.59603 99.8161 5.68945 100.331 5.68945C100.8 5.68945 101.147 5.58919 101.37 5.38867C101.598 5.18815 101.737 4.86458 101.787 4.41797H102.86C102.806 5.13802 102.576 5.66895 102.17 6.01074C101.764 6.34798 101.142 6.5166 100.304 6.5166ZM111.022 8.47852H108.589V15H107.454V8.47852H105.048V7.50781H111.022V8.47852ZM117.113 15L116.888 13.9336H116.833C116.459 14.403 116.086 14.722 115.712 14.8906C115.343 15.0547 114.88 15.1367 114.324 15.1367C113.581 15.1367 112.998 14.9453 112.574 14.5625C112.155 14.1797 111.945 13.6351 111.945 12.9287C111.945 11.4157 113.155 10.6227 115.575 10.5498L116.847 10.5088V10.0439C116.847 9.45605 116.719 9.02311 116.464 8.74512C116.213 8.46257 115.81 8.32129 115.254 8.32129C114.63 8.32129 113.923 8.5127 113.135 8.89551L112.786 8.02734C113.155 7.82682 113.559 7.6696 113.996 7.55566C114.438 7.44173 114.88 7.38477 115.322 7.38477C116.215 7.38477 116.876 7.58301 117.305 7.97949C117.738 8.37598 117.954 9.01172 117.954 9.88672V15H117.113ZM114.55 14.2002C115.256 14.2002 115.81 14.0065 116.211 13.6191C116.617 13.2318 116.819 12.6895 116.819 11.9922V11.3154L115.685 11.3633C114.782 11.3952 114.131 11.5365 113.729 11.7871C113.333 12.0332 113.135 12.4183 113.135 12.9424C113.135 13.3525 113.258 13.6647 113.504 13.8789C113.755 14.0931 114.103 14.2002 114.55 14.2002ZM120.135 14.2754C120.135 13.9701 120.203 13.7399 120.34 13.585C120.481 13.4255 120.682 13.3457 120.941 13.3457C121.206 13.3457 121.411 13.4255 121.557 13.585C121.707 13.7399 121.782 13.9701 121.782 14.2754C121.782 14.5716 121.707 14.7995 121.557 14.959C121.406 15.1185 121.201 15.1982 120.941 15.1982C120.709 15.1982 120.515 15.1276 120.36 14.9863C120.21 14.8405 120.135 14.6035 120.135 14.2754ZM120.135 8.23926C120.135 7.62402 120.404 7.31641 120.941 7.31641C121.502 7.31641 121.782 7.62402 121.782 8.23926C121.782 8.53548 121.707 8.76335 121.557 8.92285C121.406 9.08236 121.201 9.16211 120.941 9.16211C120.709 9.16211 120.515 9.09147 120.36 8.9502C120.21 8.80436 120.135 8.56738 120.135 8.23926Z" fill="white"/>
<defs>
<clipPath id="clip0_7477_8">
<rect width="92" height="16" fill="white" transform="translate(128 2)"/>
</clipPath>
</defs>
</svg>
