<svg width="60" height="60" viewBox="0 0 60 60" fill="none" xmlns="http://www.w3.org/2000/svg">
<rect x="0.5" y="0.5" width="59" height="59" rx="7.5" stroke="white"/>
<path d="M34 22H26C23.8002 22 22 23.7994 22 26V34C22 36.1998 23.8002 38 26 38H34C36.1998 38 38 36.1998 38 34V26C38 23.7994 36.1998 22 34 22ZM30 33.3332C28.1588 33.3332 26.6666 31.8404 26.6666 30C26.6666 28.1588 28.1588 26.6666 30 26.6666C31.8404 26.6666 33.3334 28.1588 33.3334 30C33.3334 31.8404 31.8404 33.3332 30 33.3332ZM34.3334 26.6666C33.7806 26.6666 33.3334 26.2188 33.3334 25.6666C33.3334 25.1144 33.7806 24.6666 34.3334 24.6666C34.8862 24.6666 35.3334 25.1144 35.3334 25.6666C35.3334 26.2188 34.8862 26.6666 34.3334 26.6666Z" fill="white"/>
</svg>
