<svg width="216" height="46" viewBox="0 0 216 46" fill="none" xmlns="http://www.w3.org/2000/svg">
<path d="M9.56227 38.1989C14.9586 41.6336 23.4222 41.6373 32.2348 37.4869C37.4095 35.0494 41.9367 31.5281 45.4451 27.53L47.119 16.5964H6.39696C6.3595 16.6694 6.32472 16.7429 6.28833 16.8159L9.56227 38.1989Z" fill="#005AAB"/>
<path d="M32.2348 37.4863C23.4222 41.6366 14.9591 41.6335 9.56226 38.1983C6.71536 36.3862 4.72146 33.62 3.98137 30.0036C3.13853 25.8837 4.05521 21.2765 6.28832 16.8152L6.25461 16.5957H6.39696C6.57248 16.2518 6.75389 15.9089 6.94493 15.5676C1.74076 21.8121 -0.957908 29.1167 0.310357 35.3155C2.21382 44.6192 12.4108 48.2949 24.1018 44.5557C25.5702 44.0857 27.0616 43.506 28.5638 42.7982C35.7415 39.4176 41.6959 33.9639 45.3701 28.0219L45.4456 27.5293C41.9367 31.528 37.41 35.0493 32.2348 37.4863Z" fill="#294159"/>
<path d="M6.28835 16.8154C6.32474 16.7424 6.35953 16.6689 6.39699 16.5959H6.25464L6.28835 16.8154Z" fill="#294159"/>
<path d="M27.3169 37.7601C26.739 37.7601 26.2403 37.4351 26.0144 36.9115L23.1568 30.2785L16.793 29.2561C16.1487 29.1527 15.6746 28.6544 15.612 28.018C15.5494 27.3815 15.9186 26.8034 16.5297 26.5818L30.3142 21.574C30.4737 21.5157 30.6401 21.4863 30.8087 21.4863C31.2405 21.4863 31.6574 21.6874 31.925 22.0245C32.1942 22.3637 32.2867 22.7995 32.1786 23.218L28.6906 36.712C28.5296 37.339 27.9773 37.7601 27.3169 37.7601Z" fill="#005AAB"/>
<path d="M30.8092 22.2731C31.1886 22.2731 31.5043 22.6276 31.4016 23.024L27.9136 36.5185C27.8365 36.8168 27.577 36.9727 27.3169 36.9727C27.089 36.9727 26.861 36.853 26.754 36.6052L23.8557 29.8776C23.7738 29.687 23.5978 29.5515 23.3896 29.5179L16.923 28.4793C16.3018 28.3795 16.2183 27.5352 16.8091 27.3209L30.5936 22.3125C30.6663 22.2852 30.7386 22.2731 30.8092 22.2731ZM30.8092 20.6978C30.5459 20.6978 30.2858 20.7435 30.0365 20.8344L16.252 25.8428C15.2936 26.1909 14.7156 27.0956 14.8141 28.0933C14.912 29.0915 15.6559 29.8708 16.664 30.033L22.5906 30.9851L25.2759 37.218C25.6238 38.0256 26.4254 38.5475 27.3175 38.5475C28.3348 38.5475 29.2204 37.8722 29.4703 36.9055L32.9583 23.4116C33.1279 22.7557 32.9829 22.0736 32.5602 21.5411C32.1412 21.0129 31.4867 20.6978 30.8092 20.6978Z" fill="#F4F4F4"/>
<path d="M27.9392 44.419C27.9397 44.419 37.3254 40.4971 44.0884 32.7645C49.2937 26.813 49.6549 21.4754 49.6495 21.458C51.5359 27.2824 48.9699 33.289 44.7659 37.4683C42.6168 39.6049 40.0321 41.3446 37.2147 42.5176C35.8544 43.0842 34.4598 43.4623 33.0224 43.7831C31.539 44.1145 27.9392 44.419 27.9392 44.419Z" fill="#005AAB"/>
<path d="M48.6125 39.6534C48.6125 39.6534 51.5595 33.8243 51.7912 27.75C51.9694 23.0745 50.0836 20.868 50.0745 20.8638C53.2158 22.2191 54.3117 25.6984 53.9259 29.2344C53.7284 31.0423 53.1713 32.8996 52.2857 34.6477C51.8581 35.4915 51.3412 36.2797 50.7825 37.0652C50.2051 37.8765 48.6125 39.6534 48.6125 39.6534Z" fill="#294159"/>
<path d="M2.06775 12.336V16.616C2.06775 19.7876 4.82315 22.3591 8.22285 22.3591C11.622 22.3591 14.3774 19.7882 14.3774 16.616V12.336H2.06775Z" fill="#203544"/>
<path d="M14.3774 12.336V16.616C14.3774 19.7876 17.1328 22.3591 20.5325 22.3591C23.9317 22.3591 26.6876 19.7882 26.6876 16.616V12.336H14.3774Z" fill="#003769"/>
<path d="M26.687 12.336V16.616C26.687 19.7876 29.4424 22.3591 32.8416 22.3591C36.2407 22.3591 38.9961 19.7882 38.9961 16.616V12.336H26.687Z" fill="#203544"/>
<path d="M38.9968 12.336V16.616C38.9968 19.7876 41.7522 22.3591 45.1514 22.3591C48.5505 22.3591 51.3065 19.7882 51.3065 16.616V12.336H38.9968Z" fill="#003769"/>
<path d="M13.2258 0L2.06775 12.3361H14.3774L19.573 0H13.2258Z" fill="#294159"/>
<path d="M26.2081 -3.05176e-05L26.6871 12.3361H38.9967L33.0295 -3.05176e-05H26.2081Z" fill="#294159"/>
<path d="M19.5729 -3.05176e-05L14.3773 12.3361H26.687L26.208 -3.05176e-05H19.5729Z" fill="#005AAB"/>
<path d="M38.735 -3.05176e-05H33.0294L38.9967 12.3361H51.3063L38.735 -3.05176e-05Z" fill="#005AAB"/>
<path d="M73.0195 30H64.7969V15.7227H73.0195V18.2031H67.8242V21.3379H72.6582V23.8184H67.8242V27.5H73.0195V30Z" fill="white"/>
<path d="M76.0078 30V15.7227H79.0352V27.5H84.8262V30H76.0078Z" fill="white"/>
<path d="M95.5391 30H87.3164V15.7227H95.5391V18.2031H90.3438V21.3379H95.1777V23.8184H90.3438V27.5H95.5391V30Z" fill="white"/>
<path d="M104.592 18.0371C103.452 18.0371 102.57 18.4668 101.945 19.3262C101.32 20.179 101.008 21.3704 101.008 22.9004C101.008 26.084 102.202 27.6758 104.592 27.6758C105.594 27.6758 106.809 27.4251 108.234 26.9238V29.4629C107.062 29.9512 105.754 30.1953 104.309 30.1953C102.232 30.1953 100.643 29.5671 99.543 28.3105C98.4427 27.0475 97.8926 25.2376 97.8926 22.8809C97.8926 21.3965 98.1628 20.0977 98.7031 18.9844C99.2435 17.8646 100.018 17.0085 101.027 16.416C102.043 15.8171 103.231 15.5176 104.592 15.5176C105.979 15.5176 107.372 15.8529 108.771 16.5234L107.795 18.9844C107.261 18.7305 106.724 18.5091 106.184 18.3203C105.643 18.1315 105.113 18.0371 104.592 18.0371Z" fill="white"/>
<path d="M116.789 30H113.762V18.2422H109.885V15.7227H120.666V18.2422H116.789V30Z" fill="white"/>
<path d="M125.891 22.0605H126.867C127.824 22.0605 128.531 21.901 128.986 21.582C129.442 21.263 129.67 20.7617 129.67 20.0781C129.67 19.401 129.436 18.9193 128.967 18.6328C128.505 18.3464 127.785 18.2031 126.809 18.2031H125.891V22.0605ZM125.891 24.5215V30H122.863V15.7227H127.023C128.964 15.7227 130.399 16.0775 131.33 16.7871C132.261 17.4902 132.727 18.5612 132.727 20C132.727 20.8398 132.495 21.5885 132.033 22.2461C131.571 22.8971 130.917 23.4082 130.07 23.7793C132.219 26.9889 133.618 29.0625 134.27 30H130.91L127.502 24.5215H125.891Z" fill="white"/>
<path d="M149.025 22.8418C149.025 25.2051 148.439 27.0215 147.268 28.291C146.096 29.5605 144.416 30.1953 142.229 30.1953C140.041 30.1953 138.361 29.5605 137.189 28.291C136.018 27.0215 135.432 25.1986 135.432 22.8223C135.432 20.446 136.018 18.6328 137.189 17.3828C138.368 16.1263 140.054 15.498 142.248 15.498C144.442 15.498 146.118 16.1296 147.277 17.3926C148.443 18.6556 149.025 20.472 149.025 22.8418ZM138.605 22.8418C138.605 24.4368 138.908 25.638 139.514 26.4453C140.119 27.2526 141.024 27.6562 142.229 27.6562C144.644 27.6562 145.852 26.0514 145.852 22.8418C145.852 19.6257 144.65 18.0176 142.248 18.0176C141.044 18.0176 140.135 18.4245 139.523 19.2383C138.911 20.0456 138.605 21.2467 138.605 22.8418Z" fill="white"/>
<path d="M160.207 22.4414H161.203C162.134 22.4414 162.831 22.2591 163.293 21.8945C163.755 21.5234 163.986 20.9863 163.986 20.2832C163.986 19.5736 163.791 19.0495 163.4 18.7109C163.016 18.3724 162.411 18.2031 161.584 18.2031H160.207V22.4414ZM167.043 20.1758C167.043 21.7122 166.561 22.8874 165.598 23.7012C164.641 24.515 163.277 24.9219 161.506 24.9219H160.207V30H157.18V15.7227H161.74C163.472 15.7227 164.787 16.097 165.686 16.8457C166.59 17.5879 167.043 18.6979 167.043 20.1758Z" fill="white"/>
<path d="M169.738 30V15.7227H172.766V27.5H178.557V30H169.738Z" fill="white"/>
<path d="M189.787 30L188.752 26.6016H183.547L182.512 30H179.25L184.289 15.6641H187.99L193.049 30H189.787ZM188.029 24.0625C187.072 20.9831 186.532 19.2415 186.408 18.8379C186.291 18.4342 186.206 18.1152 186.154 17.8809C185.939 18.7142 185.324 20.7747 184.309 24.0625H188.029Z" fill="white"/>
<path d="M200.92 18.0371C199.781 18.0371 198.898 18.4668 198.273 19.3262C197.648 20.179 197.336 21.3704 197.336 22.9004C197.336 26.084 198.531 27.6758 200.92 27.6758C201.923 27.6758 203.137 27.4251 204.562 26.9238V29.4629C203.391 29.9512 202.082 30.1953 200.637 30.1953C198.56 30.1953 196.971 29.5671 195.871 28.3105C194.771 27.0475 194.221 25.2376 194.221 22.8809C194.221 21.3965 194.491 20.0977 195.031 18.9844C195.572 17.8646 196.346 17.0085 197.355 16.416C198.371 15.8171 199.559 15.5176 200.92 15.5176C202.307 15.5176 203.7 15.8529 205.1 16.5234L204.123 18.9844C203.589 18.7305 203.052 18.5091 202.512 18.3203C201.971 18.1315 201.441 18.0371 200.92 18.0371Z" fill="white"/>
<path d="M215.832 30H207.609V15.7227H215.832V18.2031H210.637V21.3379H215.471V23.8184H210.637V27.5H215.832V30Z" fill="white"/>
</svg>
