<svg width="60" height="60" viewBox="0 0 60 60" fill="none" xmlns="http://www.w3.org/2000/svg">
<rect x="0.5" y="0.5" width="59" height="59" rx="7.5" stroke="white"/>
<path d="M35.9368 30.7343C35.6458 30.3843 35.729 30.2286 35.9368 29.9157C35.9405 29.9121 38.3428 26.7507 38.5904 25.6786L38.5919 25.6779C38.7149 25.2871 38.5919 25 37.9971 25H36.029C35.528 25 35.297 25.2464 35.1732 25.5221C35.1732 25.5221 34.1712 27.8064 32.7537 29.2871C32.2961 29.715 32.0846 29.8521 31.8349 29.8521C31.7119 29.8521 31.5206 29.715 31.5206 29.3243V25.6779C31.5206 25.2093 31.3804 25 30.9656 25H27.871C27.5567 25 27.37 25.2186 27.37 25.4221C27.37 25.8664 28.0787 25.9686 28.1522 27.2186V29.9307C28.1522 30.525 28.039 30.6343 27.7877 30.6343C27.1187 30.6343 25.4949 28.3407 24.5326 25.7157C24.3384 25.2064 24.1486 25.0007 23.6438 25.0007H21.675C21.1133 25.0007 21 25.2471 21 25.5229C21 26.01 21.669 28.4321 24.1111 31.6321C25.7387 33.8164 28.0307 35 30.1158 35C31.3691 35 31.5221 34.7371 31.5221 34.285C31.5221 32.1979 31.4089 32.0007 32.0366 32.0007C32.3276 32.0007 32.8287 32.1379 33.9987 33.1914C35.336 34.4407 35.5558 35 36.3043 35H38.2723C38.8334 35 39.1176 34.7371 38.9541 34.2186C38.5799 33.1279 36.0508 30.8843 35.9368 30.7343Z" fill="white"/>
</svg>
