<svg width="92" height="16" viewBox="0 0 92 16" fill="none" xmlns="http://www.w3.org/2000/svg">
<g clip-path="url(#clip0_6700_171)">
<path d="M22.9197 0.533691L16.3228 15.42H20.8757L21.8411 13.0806H28.8015L29.7669 15.42H34.3198L27.705 0.533691H22.9197ZM23.164 9.8858L24.8863 5.58204C25.0948 5.10149 25.2379 4.58398 25.3272 4.07176C25.4166 4.58398 25.5537 5.10149 25.7682 5.58204L27.4905 9.8858H23.164Z" fill="white"/>
<path d="M86.2254 7.67319L81.0409 0.533691H75.1471L80.5641 7.67319L74.7955 15.42H79.9682L83.3829 10.4297L86.7916 15.42H92L86.2254 7.67319Z" fill="white"/>
<path d="M59.6529 0.533691H53.0083V15.4358H57.442V10.7571H59.641C63.7887 10.7413 66.959 9.57424 66.959 5.6454C66.953 1.71657 63.8006 0.533691 59.6529 0.533691ZM59.8675 7.34579H57.4361V3.93446H59.8615C61.2142 3.93446 62.4121 4.29355 62.4121 5.63484C62.4121 6.97086 61.2202 7.34579 59.8675 7.34579Z" fill="white"/>
<path d="M86.3982 0.440552H91.5351V4.99251H86.3982V0.440552Z" fill="#FF8800"/>
<path d="M10.9596 12.2569C10.5901 12.3362 10.2028 12.3678 9.8154 12.3678C7.89651 12.3678 4.8394 11.6655 4.8394 7.99015C4.8394 4.93262 7.40785 3.68638 10.1134 3.68638C11.7998 3.68638 13.4923 4.10883 14.7557 4.86925V1.14636C13.1049 0.539082 11.3469 0.211679 9.55319 0.211679C4.85727 0.206399 0.286499 2.41901 0.286499 7.96902C0.286499 13.3765 4.82152 15.7316 9.60683 15.7316C11.5257 15.7158 13.4029 15.3884 15.1788 14.7336V7.235H10.9596V12.2569Z" fill="white"/>
<path d="M46.6915 10.0126C48.5389 9.35779 49.9096 8.0165 49.9096 5.53985C49.9096 1.61102 46.4293 0.523193 43.0147 0.523193H35.9291V15.4095H40.3807V10.5776H42.2996L46.3102 15.4253H51.3219L46.6915 10.0126ZM43.2113 7.37753H40.3807V3.93452H43.1934C44.4628 3.93452 45.3209 4.51012 45.3209 5.66659C45.3209 6.81778 44.4807 7.37753 43.2113 7.37753Z" fill="white"/>
<path d="M69.0269 15.42H73.4784V0.533691H69.0269V15.42Z" fill="white"/>
</g>
<defs>
<clipPath id="clip0_6700_171">
<rect width="92" height="16" fill="white"/>
</clipPath>
</defs>
</svg>
