<svg width="65" height="30" viewBox="0 0 65 30" fill="none" xmlns="http://www.w3.org/2000/svg">
<path d="M0 0H57.2619L65 15L57.2619 30H0V0Z" fill="#005AAB"/>
<path d="M24.1807 21H22.8545L17.3926 12.6123H17.3379C17.4108 13.5967 17.4473 14.499 17.4473 15.3193V21H16.374V11.0059H17.6865L23.1348 19.3594H23.1895C23.1803 19.2363 23.1598 18.8421 23.1279 18.1768C23.096 17.5068 23.0846 17.0283 23.0938 16.7412V11.0059H24.1807V21ZM29.9229 21.1367C28.8154 21.1367 27.9404 20.7995 27.2979 20.125C26.6598 19.4505 26.3408 18.514 26.3408 17.3154C26.3408 16.1077 26.637 15.1484 27.2295 14.4375C27.8265 13.7266 28.6263 13.3711 29.6289 13.3711C30.5677 13.3711 31.3105 13.681 31.8574 14.3008C32.4043 14.916 32.6777 15.7295 32.6777 16.7412V17.459H27.5166C27.5394 18.3385 27.7604 19.0062 28.1797 19.4619C28.6035 19.9176 29.1982 20.1455 29.9639 20.1455C30.7705 20.1455 31.568 19.9769 32.3564 19.6396V20.6514C31.9554 20.8245 31.5749 20.9476 31.2148 21.0205C30.8594 21.098 30.4287 21.1367 29.9229 21.1367ZM29.6152 14.3213C29.0137 14.3213 28.5329 14.5173 28.1729 14.9092C27.8174 15.3011 27.6077 15.8434 27.5439 16.5361H31.4609C31.4609 15.8206 31.3014 15.2738 30.9824 14.8955C30.6634 14.5127 30.2077 14.3213 29.6152 14.3213ZM40.7373 21L39.3633 16.6045C39.2767 16.3356 39.1149 15.7249 38.8779 14.7725H38.8232C38.641 15.57 38.4814 16.1852 38.3447 16.6182L36.9297 21H35.6172L33.5732 13.5078H34.7627C35.2458 15.39 35.6126 16.8232 35.8633 17.8076C36.1185 18.792 36.2643 19.4551 36.3008 19.7969H36.3555C36.4056 19.5371 36.4854 19.2021 36.5947 18.792C36.7087 18.3773 36.8066 18.0492 36.8887 17.8076L38.2627 13.5078H39.4932L40.833 17.8076C41.0882 18.5915 41.2614 19.25 41.3525 19.7832H41.4072C41.4255 19.6191 41.4733 19.3662 41.5508 19.0244C41.6328 18.6826 42.109 16.8438 42.9795 13.5078H44.1553L42.084 21H40.7373Z" fill="white"/>
</svg>
