<svg width="24" height="24" viewBox="0 0 24 24" fill="none" xmlns="http://www.w3.org/2000/svg">
<path d="M8.08818 15.3335H8.08918C8.09002 15.3335 8.09086 15.3333 8.0917 15.3333H19.7774C20.0651 15.3333 20.318 15.1359 20.3971 14.8498L22.9752 5.51649C23.0308 5.31528 22.9918 5.09896 22.8701 4.93194C22.7483 4.76493 22.5578 4.66667 22.3555 4.66667H6.60172L6.14098 2.52205C6.07536 2.21701 5.81385 2 5.51173 2H1.64453C1.28853 2 1 2.29844 1 2.66667C1 3.0349 1.28853 3.33333 1.64453 3.33333H4.99476C5.07633 3.71337 7.19959 13.5964 7.32179 14.1649C6.6368 14.4729 6.15626 15.1793 6.15626 16C6.15626 17.1028 7.02369 18 8.08986 18H19.7774C20.1334 18 20.4219 17.7016 20.4219 17.3333C20.4219 16.9651 20.1334 16.6667 19.7774 16.6667H8.08986C7.73452 16.6667 7.44532 16.3675 7.44532 16C7.44532 15.633 7.73352 15.3344 8.08818 15.3335ZM21.501 6L19.2911 14H8.60682L6.88807 6H21.501Z" fill="white"/>
<path d="M7 20C7 21.1028 7.89722 22 9 22C10.1028 22 11 21.1028 11 20C11 18.8972 10.1028 18 9 18C7.89722 18 7 18.8972 7 20ZM9 19.3333C9.36753 19.3333 9.66667 19.6325 9.66667 20C9.66667 20.3675 9.36753 20.6667 9 20.6667C8.63247 20.6667 8.33333 20.3675 8.33333 20C8.33333 19.6325 8.63247 19.3333 9 19.3333Z" fill="white"/>
<path d="M17 20C17 21.1028 17.8972 22 19 22C20.1028 22 21 21.1028 21 20C21 18.8972 20.1028 18 19 18C17.8972 18 17 18.8972 17 20ZM19 19.3333C19.3675 19.3333 19.6667 19.6325 19.6667 20C19.6667 20.3675 19.3675 20.6667 19 20.6667C18.6325 20.6667 18.3333 20.3675 18.3333 20C18.3333 19.6325 18.6325 19.3333 19 19.3333Z" fill="white"/>
</svg>
